<svg width="78" height="78" viewBox="0 0 78 78" fill="none" xmlns="http://www.w3.org/2000/svg">
<g filter="url(#filter0_d_1429_3977)">
<path d="M22.2078 45.5958C20.0445 45.5969 18.2867 43.8368 18.2863 41.6739L18.2855 29.6665C18.2848 27.5055 20.0422 25.7458 22.2027 25.7454C23.2531 25.7446 24.2367 26.152 24.9781 26.8926C25.7195 27.6333 26.1273 28.6184 26.1281 29.6657L26.127 41.6735C26.1297 42.1883 26.0298 42.6984 25.8332 43.1742C25.6367 43.65 25.3473 44.0818 24.982 44.4446C24.6189 44.8107 24.1867 45.101 23.7105 45.2986C23.2342 45.4962 22.7234 45.5972 22.2078 45.5958ZM22.2047 26.7989C20.6215 26.7981 19.3383 28.0844 19.3379 29.6665L19.3398 41.6727C19.3397 42.4335 19.6417 43.1632 20.1795 43.7015C20.7172 44.2397 21.4466 44.5424 22.2074 44.543C22.5842 44.5431 22.9572 44.4688 23.3053 44.3246C23.6533 44.1804 23.9695 43.9689 24.2358 43.7024C24.502 43.4358 24.7131 43.1194 24.857 42.7712C25.0009 42.423 25.0747 42.0498 25.0742 41.6731V29.6649C25.0734 28.9044 24.7707 28.1754 24.2326 27.638C23.6946 27.1006 22.9652 26.7988 22.2047 26.7989Z" fill="white"/>
<path d="M52.9617 27.3935L51.9078 27.3931L26.0801 27.3966L25.0258 27.397L25.025 26.3427C25.0227 22.0146 27.3805 17.9892 31.2426 15.611L29.741 12.87C29.5574 12.5489 29.5113 12.1423 29.6184 11.7704C29.6726 11.5849 29.7632 11.4121 29.8848 11.262C30.0065 11.1118 30.1568 10.9874 30.3269 10.8958C30.5373 10.78 30.7739 10.7199 31.0141 10.7212C31.5461 10.7212 32.0332 11.0099 32.2902 11.4763L33.8617 14.3392C35.5008 13.7393 37.2331 13.4345 38.9785 13.4388C40.7777 13.438 42.5031 13.7423 44.1363 14.3415L45.7055 11.4739C45.8304 11.2452 46.0148 11.0543 46.2391 10.9215C46.4634 10.7887 46.7194 10.7188 46.9801 10.7192C47.22 10.7185 47.4564 10.7773 47.668 10.8903C47.8384 10.9818 47.9888 11.1066 48.1103 11.2572C48.2317 11.4078 48.3217 11.5813 48.375 11.7673C48.4287 11.9507 48.4453 12.143 48.424 12.3329C48.4027 12.5228 48.3438 12.7066 48.2508 12.8735L46.75 15.613C50.6059 17.9962 52.9609 22.0185 52.9605 26.3392L52.9617 27.3935ZM45.3266 16.0169L47.3277 12.3626C47.3563 12.3167 47.3752 12.2655 47.3833 12.212C47.3914 12.1585 47.3886 12.104 47.3749 12.0517C47.3613 11.9993 47.3371 11.9504 47.3038 11.9077C47.2706 11.865 47.2291 11.8296 47.1817 11.8035C47.1343 11.7775 47.0821 11.7613 47.0283 11.7561C46.9745 11.7509 46.9201 11.7566 46.8686 11.7731C46.8171 11.7896 46.7695 11.8163 46.7287 11.8518C46.6879 11.8873 46.6547 11.9307 46.6312 11.9794L44.6094 15.6708C42.9086 14.9153 41.0043 14.4907 38.9914 14.4927C36.9828 14.4907 35.082 14.9138 33.3863 15.6665L31.3625 11.9833C31.3378 11.9373 31.3042 11.8966 31.2636 11.8637C31.2231 11.8308 31.1764 11.8062 31.1263 11.7915C31.0761 11.7768 31.0236 11.7722 30.9717 11.7779C30.9197 11.7837 30.8695 11.7997 30.8238 11.8251C30.6297 11.929 30.5582 12.1732 30.6664 12.3638L32.6684 16.0153C28.7348 18.0442 26.0769 21.9075 26.0793 26.3431L51.9066 26.3399C51.9078 21.906 49.2547 18.0505 45.3266 16.0169ZM33.1172 21.6642C32.8299 21.664 32.5545 21.5498 32.3516 21.3465C32.1486 21.1433 32.0346 20.8678 32.0348 20.5806C32.0349 20.2933 32.1492 20.0179 32.3524 19.8149C32.5556 19.6119 32.8311 19.498 33.1184 19.4982C33.4056 19.4987 33.681 19.613 33.8841 19.8161C34.0873 20.0192 34.2017 20.2945 34.2023 20.5817C34.2019 20.8692 34.0874 21.1447 33.8839 21.3476C33.6804 21.5506 33.4046 21.6645 33.1172 21.6642ZM44.8777 21.6618C44.7355 21.6621 44.5946 21.6343 44.4631 21.58C44.3317 21.5257 44.2122 21.4459 44.1116 21.3454C44.011 21.2448 43.9313 21.1254 43.8769 20.994C43.8226 20.8625 43.7947 20.7216 43.7949 20.5794C43.7959 20.2923 43.9103 20.0171 44.1132 19.8139C44.3161 19.6107 44.591 19.4958 44.8781 19.4942C45.1649 19.4966 45.4391 19.6119 45.6414 19.8151C45.8438 20.0183 45.9579 20.293 45.959 20.5798C45.959 20.7218 45.9311 20.8625 45.8768 20.9937C45.8225 21.125 45.7429 21.2443 45.6424 21.3447C45.542 21.4452 45.4228 21.5249 45.2916 21.5793C45.1604 21.6337 45.0198 21.6618 44.8777 21.6618ZM34.1996 59.281C32.0383 59.2806 30.2793 57.5228 30.2789 55.3599L30.2781 50.0603L29.2477 50.0614C28.7072 50.0633 28.1717 49.9579 27.6723 49.7512C27.1728 49.5445 26.7194 49.2408 26.3383 48.8575C25.9545 48.4765 25.6504 48.0228 25.4436 47.5231C25.2369 47.0233 25.1316 46.4874 25.134 45.9466L25.1301 27.3423V26.2872H26.1844L51.8183 26.2833L52.873 26.2825V27.3368L52.8758 45.9435C52.8762 48.2126 51.0301 50.0591 48.7617 50.0587L47.725 50.0595L47.7262 55.3571C47.7262 57.5189 45.9676 59.2786 43.807 59.2786C43.2918 59.281 42.7813 59.1808 42.3053 58.9839C41.8293 58.7869 41.3972 58.4971 41.0344 58.1314C40.6684 57.7687 40.3781 57.3368 40.1805 56.861C39.9829 56.3851 39.8818 55.8747 39.8832 55.3595V50.0595H38.1211V55.3583C38.1203 57.5204 36.3621 59.2813 34.1996 59.281Z" fill="white"/>
<path d="M26.1895 45.946C26.1886 46.3481 26.2671 46.7464 26.4205 47.1181C26.5739 47.4897 26.7991 47.8274 27.0833 48.1118C27.3675 48.3963 27.7051 48.6218 28.0766 48.7754C28.4481 48.9291 28.8464 49.0079 29.2484 49.0074H31.3316L31.334 55.3605C31.3336 56.9425 32.6188 58.2281 34.1992 58.2285C34.5759 58.2283 34.9489 58.1538 35.2968 58.0095C35.6447 57.8651 35.9608 57.6536 36.227 57.3871C36.4932 57.1205 36.7042 56.8042 36.8481 56.456C36.992 56.1079 37.0659 55.7348 37.0656 55.3582L37.066 49.007L40.9367 49.0058L40.9363 55.3585C40.9379 56.941 42.2246 58.2281 43.8047 58.2249C45.3891 58.2261 46.6734 56.939 46.673 55.3562L46.6711 49.005L48.7621 49.0046C50.4492 49.005 51.8215 47.6343 51.8215 45.9433L51.818 27.3359L26.1848 27.3406L26.1895 45.946ZM55.7953 45.5906C53.6328 45.591 51.8738 43.8335 51.8742 41.6703L51.8711 29.6632C51.8719 27.5003 53.6281 25.741 55.7895 25.741C57.9535 25.7406 59.7137 27.4996 59.7133 29.6621L59.7145 41.6683C59.7148 43.83 57.9574 45.591 55.7953 45.5906ZM55.7914 26.7953C54.2082 26.7937 52.9254 28.0792 52.9254 29.6632L52.9266 41.6699C52.9264 42.0465 53.0004 42.4195 53.1445 42.7675C53.2885 43.1155 53.4998 43.4317 53.7662 43.698C54.0325 43.9643 54.3488 44.1755 54.6968 44.3194C55.0449 44.4634 55.4179 44.5374 55.7945 44.5371C56.1711 44.5371 56.544 44.4629 56.8919 44.3187C57.2398 44.1745 57.5559 43.9632 57.8221 43.6968C58.0883 43.4304 58.2994 43.1142 58.4433 42.7662C58.5872 42.4182 58.6612 42.0453 58.6609 41.6687L58.6578 29.6624C58.6581 29.2859 58.5841 28.913 58.4402 28.5651C58.2962 28.2172 58.0851 27.901 57.8189 27.6347C57.5527 27.3685 57.2366 27.1573 56.8887 27.0132C56.5408 26.8692 56.1679 26.7951 55.7914 26.7953Z" fill="white"/>
<path d="M22.2047 26.7988C20.6215 26.798 19.3383 28.0843 19.3379 29.6664L19.3398 41.6726C19.3396 42.0493 19.4136 42.4224 19.5576 42.7705C19.7017 43.1186 19.9129 43.4349 20.1793 43.7013C20.4456 43.9677 20.7619 44.179 21.11 44.3231C21.458 44.4671 21.8311 44.5412 22.2078 44.541C22.5845 44.5414 22.9575 44.4675 23.3056 44.3235C23.6536 44.1795 23.9699 43.9682 24.2361 43.7018C24.5024 43.4354 24.7135 43.119 24.8573 42.7709C25.0011 42.4228 25.0748 42.0497 25.0742 41.673V29.6648C25.0734 28.9043 24.7707 28.1753 24.2326 27.6379C23.6946 27.1005 22.9652 26.7987 22.2047 26.7988ZM45.3266 16.0168L47.3277 12.3625C47.3787 12.2698 47.3909 12.1606 47.3615 12.059C47.3321 11.9574 47.2637 11.8715 47.1711 11.8203C47.0784 11.7701 46.9695 11.7587 46.8684 11.7885C46.7673 11.8183 46.682 11.8869 46.6312 11.9793L44.6098 15.6718C42.909 14.9148 41.0055 14.4906 38.9914 14.4926C36.9828 14.4906 35.0801 14.9136 33.3863 15.6664L31.3625 11.9832C31.3378 11.9372 31.3042 11.8966 31.2637 11.8637C31.2232 11.8308 31.1765 11.8062 31.1265 11.7915C31.0764 11.7767 31.0239 11.7721 30.972 11.7777C30.9201 11.7834 30.8699 11.7993 30.8242 11.8246C30.7781 11.8492 30.7373 11.8828 30.7044 11.9234C30.6714 11.964 30.6468 12.0108 30.6321 12.061C30.6174 12.1112 30.6129 12.1638 30.6188 12.2158C30.6247 12.2677 30.6409 12.318 30.6664 12.3636L32.6684 16.0156C28.7348 18.0441 26.077 21.9074 26.0793 26.3429L51.9066 26.3398C51.9078 21.9058 49.2547 18.0504 45.3266 16.0168ZM33.1172 21.664C32.83 21.6639 32.5545 21.5496 32.3516 21.3464C32.1486 21.1432 32.0346 20.8677 32.0348 20.5804C32.0349 20.2932 32.1492 20.0178 32.3524 19.8148C32.5556 19.6118 32.8311 19.4979 33.1184 19.498C33.4056 19.4985 33.681 19.6129 33.8841 19.8159C34.0873 20.019 34.2017 20.2943 34.2023 20.5816C34.2019 20.869 34.0874 21.1445 33.8839 21.3475C33.6804 21.5505 33.4046 21.6643 33.1172 21.664ZM44.8777 21.6617C44.7355 21.6618 44.5947 21.6339 44.4633 21.5795C44.3319 21.5252 44.2125 21.4454 44.112 21.3449C44.0114 21.2444 43.9316 21.125 43.8772 20.9936C43.8228 20.8623 43.7949 20.7215 43.7949 20.5793C43.7965 20.2923 43.911 20.0174 44.1138 19.8143C44.3165 19.6112 44.5911 19.4962 44.8781 19.4941C45.1649 19.4965 45.4391 19.6117 45.6414 19.815C45.8438 20.0182 45.9579 20.2929 45.959 20.5797C45.9591 20.7217 45.9313 20.8624 45.877 20.9937C45.8227 21.125 45.7431 21.2443 45.6427 21.3448C45.5423 21.4453 45.423 21.525 45.2917 21.5794C45.1605 21.6338 45.0198 21.6617 44.8777 21.6617ZM26.1848 27.3406L26.1891 45.948C26.1886 46.3499 26.2674 46.7479 26.421 47.1193C26.5746 47.4906 26.7999 47.8281 27.0841 48.1122C27.3683 48.3964 27.7058 48.6217 28.0771 48.7752C28.4485 48.9287 28.8466 49.0075 29.2484 49.007L31.3316 49.0078L31.334 55.3609C31.3336 56.9429 32.6195 58.2289 34.1992 58.2289C35.7836 58.2289 37.0672 56.9418 37.0676 55.359L37.066 49.0074L40.9367 49.0062L40.9383 55.359C40.9383 56.9398 42.2246 58.2285 43.8047 58.2254C45.3891 58.2265 46.6734 56.9394 46.673 55.3566L46.6711 49.0054L48.7617 49.0039C49.1636 49.0039 49.5616 48.9248 49.933 48.7711C50.3043 48.6173 50.6417 48.3919 50.926 48.1077C51.2102 47.8236 51.4357 47.4862 51.5895 47.1149C51.7434 46.7436 51.8226 46.3456 51.8227 45.9437L51.8191 27.3363L26.1848 27.3406ZM58.659 29.6621C58.659 29.2855 58.5849 28.9127 58.4408 28.5648C58.2967 28.2169 58.0855 27.9008 57.8192 27.6346C57.5529 27.3683 57.2367 27.1572 56.8888 27.0132C56.5408 26.8692 56.168 26.7951 55.7914 26.7953C54.2082 26.7937 52.9254 28.0793 52.9254 29.6633L52.9277 41.6703C52.9275 42.0468 53.0015 42.4197 53.1454 42.7677C53.2894 43.1156 53.5006 43.4317 53.7668 43.698C54.0331 43.9642 54.3492 44.1754 54.6971 44.3194C55.0451 44.4634 55.418 44.5373 55.7945 44.5371C56.1711 44.5371 56.544 44.463 56.892 44.3188C57.2399 44.1746 57.556 43.9633 57.8222 43.6969C58.0884 43.4306 58.2995 43.1143 58.4434 42.7663C58.5873 42.4183 58.6612 42.0453 58.6609 41.6687L58.659 29.6621Z" fill="#A4C439"/>
<circle cx="39" cy="35" r="34" stroke="#A4C439" stroke-width="2"/>
</g>
<defs>
<filter id="filter0_d_1429_3977" x="0" y="0" width="78" height="78" filterUnits="userSpaceOnUse" color-interpolation-filters="sRGB">
<feFlood flood-opacity="0" result="BackgroundImageFix"/>
<feColorMatrix in="SourceAlpha" type="matrix" values="0 0 0 0 0 0 0 0 0 0 0 0 0 0 0 0 0 0 127 0" result="hardAlpha"/>
<feOffset dy="4"/>
<feGaussianBlur stdDeviation="2"/>
<feComposite in2="hardAlpha" operator="out"/>
<feColorMatrix type="matrix" values="0 0 0 0 0 0 0 0 0 0 0 0 0 0 0 0 0 0 0.25 0"/>
<feBlend mode="normal" in2="BackgroundImageFix" result="effect1_dropShadow_1429_3977"/>
<feBlend mode="normal" in="SourceGraphic" in2="effect1_dropShadow_1429_3977" result="shape"/>
</filter>
</defs>
</svg>
