<svg width="70" height="70" viewBox="0 0 70 70" fill="none" xmlns="http://www.w3.org/2000/svg">
<circle cx="35" cy="35" r="34" fill="white" stroke="#252F3E" stroke-width="2"/>
<path d="M24.2228 32.9801C24.2228 33.5847 24.2881 34.075 24.4025 34.4345C24.5333 34.794 24.6967 35.1862 24.9255 35.6111C25.0072 35.7418 25.0399 35.8726 25.0399 35.987C25.0399 36.1504 24.9418 36.3138 24.7294 36.4772L23.6999 37.1635C23.5528 37.2616 23.4057 37.3106 23.275 37.3106C23.1116 37.3106 22.9481 37.2289 22.7847 37.0818C22.5559 36.8367 22.3598 36.5752 22.1964 36.3138C22.033 36.036 21.8696 35.7255 21.6898 35.3496C20.4152 36.8531 18.8137 37.6048 16.8854 37.6048C15.5127 37.6048 14.4179 37.2126 13.6171 36.4282C12.8164 35.6438 12.4079 34.5979 12.4079 33.2906C12.4079 31.9016 12.8981 30.774 13.8949 29.9242C14.8918 29.0745 16.2154 28.6496 17.8986 28.6496C18.4542 28.6496 19.0262 28.6986 19.6308 28.7803C20.2354 28.862 20.8564 28.9928 21.5101 29.1398V27.9469C21.5101 26.705 21.2486 25.8389 20.742 25.3323C20.2191 24.8257 19.3367 24.5806 18.0784 24.5806C17.5064 24.5806 16.9181 24.6459 16.3135 24.793C15.7088 24.9401 15.1205 25.1198 14.5486 25.3486C14.2871 25.463 14.091 25.5284 13.9766 25.561C13.8622 25.5937 13.7805 25.6101 13.7152 25.6101C13.4864 25.6101 13.372 25.4467 13.372 25.1035V24.3028C13.372 24.0413 13.4047 23.8452 13.4864 23.7308C13.5681 23.6164 13.7152 23.502 13.944 23.3876C14.5159 23.0935 15.2023 22.8484 16.003 22.6523C16.8037 22.4398 17.6535 22.3418 18.5523 22.3418C20.4969 22.3418 21.9186 22.783 22.8338 23.6654C23.7325 24.5479 24.1901 25.8879 24.1901 27.6854V32.9801H24.2228ZM17.5881 35.464C18.1274 35.464 18.683 35.366 19.2713 35.1699C19.8596 34.9738 20.3825 34.6143 20.8237 34.124C21.0852 33.8135 21.2813 33.4704 21.3794 33.0782C21.4774 32.686 21.5428 32.2121 21.5428 31.6564V30.9701C21.0689 30.8557 20.5623 30.7577 20.0393 30.6923C19.5164 30.6269 19.0098 30.5942 18.5032 30.5942C17.4084 30.5942 16.6076 30.8067 16.0684 31.2479C15.5291 31.6891 15.2676 32.3101 15.2676 33.1272C15.2676 33.8952 15.4637 34.4672 15.8723 34.8594C16.2645 35.2679 16.8364 35.464 17.5881 35.464ZM30.7104 37.2289C30.4162 37.2289 30.2201 37.1799 30.0894 37.0655C29.9587 36.9674 29.8443 36.7387 29.7462 36.4282L25.906 23.7962C25.8079 23.4693 25.7589 23.2569 25.7589 23.1425C25.7589 22.881 25.8896 22.734 26.1511 22.734H27.7526C28.063 22.734 28.2755 22.783 28.3899 22.8974C28.5206 22.9954 28.6187 23.2242 28.7167 23.5347L31.4621 34.3528L34.0114 23.5347C34.0931 23.2079 34.1911 22.9954 34.3219 22.8974C34.4526 22.7993 34.6814 22.734 34.9755 22.734H36.2828C36.5933 22.734 36.8058 22.783 36.9365 22.8974C37.0672 22.9954 37.1816 23.2242 37.247 23.5347L39.829 34.4835L42.656 23.5347C42.7541 23.2079 42.8685 22.9954 42.9829 22.8974C43.1136 22.7993 43.326 22.734 43.6202 22.734H45.14C45.4014 22.734 45.5485 22.8647 45.5485 23.1425C45.5485 23.2242 45.5321 23.3059 45.5158 23.404C45.4995 23.502 45.4668 23.6327 45.4014 23.8125L41.4631 36.4445C41.3651 36.7713 41.2507 36.9838 41.1199 37.0818C40.9892 37.1799 40.7768 37.2453 40.499 37.2453H39.0936C38.7831 37.2453 38.5707 37.1962 38.4399 37.0818C38.3092 36.9674 38.1948 36.755 38.1294 36.4282L35.5965 25.8879L33.0799 36.4118C32.9982 36.7387 32.9001 36.9511 32.7694 37.0655C32.6387 37.1799 32.4099 37.2289 32.1157 37.2289H30.7104ZM51.7092 37.6701C50.8595 37.6701 50.0097 37.5721 49.1927 37.376C48.3756 37.1799 47.7383 36.9674 47.3134 36.7223C47.0519 36.5752 46.8722 36.4118 46.8068 36.2648C46.7414 36.1177 46.7087 35.9543 46.7087 35.8072V34.9738C46.7087 34.6306 46.8395 34.4672 47.0846 34.4672C47.1826 34.4672 47.2807 34.4835 47.3787 34.5162C47.4768 34.5489 47.6239 34.6143 47.7873 34.6796C48.3429 34.9248 48.9475 35.1209 49.5849 35.2516C50.2385 35.3823 50.8758 35.4477 51.5295 35.4477C52.559 35.4477 53.3597 35.2679 53.9154 34.9084C54.471 34.5489 54.7651 34.026 54.7651 33.356C54.7651 32.8984 54.618 32.5225 54.3239 32.2121C54.0297 31.9016 53.4741 31.6238 52.6734 31.3623L50.3039 30.6269C49.1109 30.2511 48.2285 29.6955 47.6892 28.9601C47.15 28.2411 46.8722 27.4403 46.8722 26.5906C46.8722 25.9042 47.0192 25.2996 47.3134 24.7767C47.6075 24.2537 47.9997 23.7962 48.49 23.4366C48.9802 23.0608 49.5358 22.783 50.1895 22.5869C50.8431 22.3908 51.5295 22.3091 52.2485 22.3091C52.608 22.3091 52.9839 22.3254 53.3434 22.3744C53.7193 22.4235 54.0624 22.4888 54.4056 22.5542C54.7324 22.6359 55.0429 22.7176 55.3371 22.8157C55.6312 22.9137 55.86 23.0118 56.0234 23.1098C56.2522 23.2405 56.4156 23.3713 56.5137 23.5184C56.6117 23.6491 56.6607 23.8288 56.6607 24.0576V24.8257C56.6607 25.1689 56.53 25.3486 56.2849 25.3486C56.1542 25.3486 55.9417 25.2832 55.6639 25.1525C54.7324 24.7276 53.6866 24.5152 52.5263 24.5152C51.5949 24.5152 50.8595 24.6623 50.3529 24.9728C49.8463 25.2832 49.5849 25.7571 49.5849 26.4272C49.5849 26.8847 49.7483 27.2769 50.0751 27.5874C50.4019 27.8979 51.0066 28.2084 51.8727 28.4862L54.1932 29.2216C55.3698 29.5974 56.2195 30.1203 56.7261 30.7903C57.2327 31.4603 57.4778 32.2284 57.4778 33.0782C57.4778 33.7808 57.3307 34.4182 57.0529 34.9738C56.7588 35.5294 56.3666 36.0196 55.86 36.4118C55.3534 36.8204 54.7488 37.1145 54.0461 37.327C53.3107 37.5557 52.5427 37.6701 51.7092 37.6701Z" fill="#252F3E"/>
<path fill-rule="evenodd" clip-rule="evenodd" d="M54.7976 45.6121C49.4213 49.5831 41.6101 51.6912 34.8937 51.6912C25.481 51.6912 16.9998 48.2105 10.594 42.4255C10.0874 41.968 10.5449 41.347 11.1496 41.7065C18.0783 45.7265 26.6249 48.1614 35.4657 48.1614C41.4303 48.1614 47.9832 46.9195 54.0132 44.3702C54.912 43.9616 55.6801 44.9585 54.7976 45.6121Z" fill="#FF9900"/>
<path fill-rule="evenodd" clip-rule="evenodd" d="M57.0365 43.0629C56.3501 42.1804 52.4936 42.638 50.7452 42.8504C50.2222 42.9158 50.1405 42.4582 50.6144 42.1151C53.6865 39.958 58.7359 40.579 59.3242 41.298C59.9125 42.0333 59.1608 47.0829 56.2848 49.5014C55.8436 49.8773 55.4187 49.6812 55.6148 49.1909C56.2684 47.5731 57.7228 43.929 57.0365 43.0629Z" fill="#FF9900"/>
</svg>
