<svg width="70" height="70" viewBox="0 0 70 70" fill="none" xmlns="http://www.w3.org/2000/svg">
<circle cx="35" cy="35" r="34" stroke="#68217A" stroke-width="2"/>
<path d="M55.0649 22.1309L36.2467 11.2734C35.935 11.0781 35.5064 11 35.0389 11C34.5714 11 34.1428 11.1172 33.8311 11.2734L15.1298 22.17C14.4675 22.5605 13.9999 23.5369 13.9999 24.279V46.0331C13.9999 46.4627 14.0779 46.9704 14.3895 47.4L55.9999 23.1854C55.7662 22.7167 55.4155 22.3652 55.0649 22.1309Z" fill="#9B4F96"/>
<path d="M13.9999 46.5983C14.1958 46.9131 14.4701 47.1885 14.7443 47.346L33.6287 58.325C33.9421 58.5217 34.3731 58.6004 34.8432 58.6004C35.3134 58.6004 35.7443 58.4824 36.0578 58.325L54.8637 47.346C55.5298 46.9524 55.9999 45.9687 55.9999 45.221V23.3023C55.9999 22.9481 55.9608 22.5546 55.7649 22.2004L13.9999 46.5983Z" fill="#68217A"/>
<path d="M43.1919 39.5169C41.5622 42.4019 38.4579 44.3513 34.9269 44.3513C29.6885 44.3513 25.4203 40.0627 25.4203 34.7994C25.4203 29.5361 29.6885 25.2475 34.9269 25.2475C38.4579 25.2475 41.5622 27.1969 43.1919 30.1209L48.2362 27.1969C45.5976 22.5574 40.6309 19.3994 34.9269 19.3994C26.4679 19.3994 19.5999 26.3002 19.5999 34.7994C19.5999 43.2987 26.4679 50.1994 34.9269 50.1994C40.5921 50.1994 45.5588 47.0804 48.1974 42.4799L43.1919 39.5169ZM47.7318 35.6571L48.081 33.9807H46.4513V32.1483H48.4302L48.8959 29.7311H50.7972L50.3316 32.1093H51.8061L52.2717 29.7311H54.1342L53.6686 32.1093H54.5999V33.9417H53.3194L52.9701 35.6181H54.5999V37.4506H52.6209L52.1553 39.7898H50.254L50.7196 37.4506H49.2451L48.7795 39.7898H46.9169L47.3826 37.4506H46.4513V35.6181H47.7318V35.6571ZM49.5943 35.6571H51.0688L51.418 33.9807H49.9435L49.5943 35.6571Z" fill="white"/>
</svg>
