<svg width="70" height="70" viewBox="0 0 70 70" fill="none" xmlns="http://www.w3.org/2000/svg">
<circle cx="35" cy="35" r="34" fill="white" stroke="#019BC6" stroke-width="2"/>
<path d="M65.5 31.4219C63.4844 30.25 60.8125 30.1094 58.5625 30.7656C58.2812 28.3281 56.6875 26.2187 54.8125 24.7187L54.0625 24.1094L53.4062 24.8594C52.1406 26.3125 51.7656 28.75 51.9531 30.625C52.0937 31.9844 52.5156 33.3906 53.3594 34.5156C52.7031 34.8906 52 35.4062 51.3437 35.6406C50.0312 36.1094 48.5781 36.5781 47.1719 36.5781H44.0312V29.9688H37.9375V18.25H30.9062V23.875H19.1875V29.9688H13.0937V36.5312H7.84375L7.75 37.2344C7.51562 40.2344 7.89062 43.1406 9.15625 45.9062L9.67187 46.9375L9.71875 47.0312C13.4219 53.3125 19.8906 55.9375 26.9687 55.9375C40.6562 55.9375 51.9531 49.7969 57.1094 36.9062C60.5781 37.0938 64.1406 36.0625 65.8281 32.7344L66.25 31.8906L65.5 31.4219ZM20.125 25.2812H24.8125V30.4375H20.125V25.2812ZM26.2656 46C26.2656 46.7969 25.6094 47.4531 24.8125 47.4531C24.0156 47.4531 23.3594 46.7969 23.3594 46C23.3594 45.2031 24.0156 44.5469 24.8125 44.5469C25.6094 44.5938 26.2656 45.2031 26.2656 46ZM20.125 31.375H24.8125V36.5312H20.125V31.375ZM14.0312 31.375H19.1875V36.5312H14.0312V31.375ZM27.0156 54.9062C19.6094 54.8594 15.625 52.375 12.3437 49.0938C13.3281 49.1406 14.2656 49.1875 15.1094 49.1875C15.8594 49.1875 16.6094 49.1875 17.3125 49.1406C19.1406 49.0469 20.7344 48.8125 22.0469 48.4375C23.125 50.9219 25.0937 53.2188 28.6094 54.9062H27.0156ZM30.9062 36.5312H25.75V31.375H30.9062V36.5312ZM30.9062 30.4375H25.75V25.2812H30.9062V30.4375ZM37 36.5312H31.8437V31.375H37V36.5312ZM37 30.4375H31.8437V25.2812H37V30.4375ZM37 24.3438H31.8437V19.1875H37V24.3438ZM43.0937 36.5312H37.9375V31.375H43.0937V36.5312ZM25.1875 45.0625C25.0937 45.0156 24.9531 44.9688 24.8125 44.9688C24.25 44.9688 23.7812 45.4375 23.7812 46C23.7812 46.5625 24.25 47.0312 24.8125 47.0312C25.375 47.0312 25.8437 46.5625 25.8437 46C25.8437 45.8594 25.7969 45.7188 25.75 45.625C25.6562 45.7656 25.5625 45.8594 25.375 45.8594C25.1406 45.8594 24.9531 45.6719 24.9531 45.4375C25 45.25 25.0937 45.1094 25.1875 45.0625Z" fill="#019BC6"/>
</svg>
