<svg width="70" height="70" viewBox="0 0 70 70" fill="none" xmlns="http://www.w3.org/2000/svg">
<circle cx="35" cy="35" r="34" stroke="black" stroke-width="2"/>
<path d="M55 45.6016C53.5451 45.9717 52.6454 45.6176 51.8382 44.4052C50.0259 41.69 48.0254 39.0993 46.0952 36.4607C45.8463 36.1193 45.5879 35.7843 45.2656 35.3599C42.9812 38.442 40.6999 41.3773 38.5591 44.4307C37.7933 45.5218 36.9893 45.9972 35.5599 45.6112L44.1489 34.0837L36.1534 23.6729C37.5285 23.4049 38.4793 23.5421 39.3216 24.7737C41.1817 27.492 43.2332 30.0796 45.2784 32.817C47.3363 30.0891 49.3623 27.4984 51.2766 24.8056C52.0455 23.7144 52.8719 23.2996 54.2534 23.7016C53.2069 25.0895 52.1827 26.4551 51.1522 27.8111C49.7611 29.6393 48.3955 31.4898 46.9534 33.2797C46.4397 33.9178 46.5227 34.3326 46.9821 34.9356C49.6494 38.442 52.2848 41.9835 55 45.6016ZM15.0096 33.8923C15.2393 32.7405 15.3924 31.5664 15.7115 30.4369C17.6258 23.5995 25.4746 20.7567 30.8666 24.9938C34.0253 27.4792 34.8102 30.9825 34.6538 34.9324H16.8505C16.5825 42.0186 21.6842 46.2971 28.1866 44.1148C30.4678 43.3491 31.811 41.5624 32.4842 39.329C32.8256 38.2091 33.3904 38.0336 34.4433 38.3527C33.904 41.1476 32.6821 43.4831 30.1296 44.9444C26.301 47.1331 20.8355 46.4248 17.9608 43.3842C16.2635 41.5975 15.5424 39.3736 15.2233 36.9712C15.1755 36.5883 15.0766 36.2118 15 35.8321C15.0064 35.1855 15.0096 34.5389 15.0096 33.8923ZM16.8824 33.4169H32.9724C32.8671 28.2928 29.6766 24.6524 25.3151 24.6205C20.5292 24.5822 17.0898 28.1365 16.8824 33.4169Z" fill="black"/>
</svg>
