<svg width="70" height="70" viewBox="0 0 70 70" fill="none" xmlns="http://www.w3.org/2000/svg">
<circle cx="35" cy="35" r="34" stroke="#F58220" stroke-width="2"/>
<path d="M19.1423 42.5197L23.7633 12.907C23.9234 11.8989 25.2777 11.6566 25.7536 12.5609L30.7208 21.8549L19.1423 42.5197ZM52 49.7151L47.591 22.439C47.4569 21.5909 46.3968 21.2448 45.7867 21.8549L18 49.7151L33.3774 58.3471C33.8533 58.6089 34.3876 58.7462 34.9308 58.7462C35.4739 58.7462 36.0082 58.6089 36.4841 58.3471L52 49.7151ZM39.5172 25.9177L35.9562 19.1463C35.5582 18.3761 34.4678 18.3761 34.0697 19.1463L18.4284 47.0325L39.5172 25.9177Z" fill="#F58220"/>
</svg>
