<svg width="70" height="70" viewBox="0 0 70 70" fill="none" xmlns="http://www.w3.org/2000/svg">
<circle cx="35" cy="35" r="34" fill="white" stroke="#F34F29" stroke-width="2"/>
<path d="M58.7273 32.804L37.1973 11.2751C35.9582 10.0353 33.9473 10.0353 32.7063 11.2751L28.2363 15.7462L33.9074 21.4173C35.2258 20.9724 36.7367 21.2708 37.7871 22.3212C38.2877 22.8222 38.6372 23.454 38.7956 24.1443C38.954 24.8346 38.9149 25.5556 38.6828 26.2247L44.1484 31.6911C45.4707 31.2353 46.9969 31.5298 48.0523 32.5876C49.5289 34.063 49.5289 36.4548 48.0523 37.931C47.7015 38.282 47.2848 38.5605 46.8263 38.7505C46.3677 38.9405 45.8762 39.0383 45.3799 39.0383C44.8835 39.0383 44.392 38.9405 43.9335 38.7505C43.4749 38.5605 43.0583 38.282 42.7074 37.931C42.1802 37.4034 41.8209 36.7318 41.6746 36.0005C41.5282 35.2692 41.6015 34.5109 41.8852 33.8212L36.7883 28.7239L36.7875 42.1384C37.1573 42.3205 37.4949 42.5617 37.7871 42.8524C39.2633 44.3278 39.2633 46.7188 37.7871 48.1974C36.3109 49.6728 33.9184 49.6728 32.4438 48.1974C30.968 46.7192 30.8469 44.3282 32.3223 42.8524C32.6871 42.488 33.0469 42.2126 33.4375 42.0282V28.4896C33.0469 28.3052 32.6875 28.0317 32.3219 27.6649C31.2043 26.5478 30.9953 24.9071 31.5688 23.5337L26.009 17.9427L11.2613 32.7044C10.0211 33.9454 10.0289 35.9563 11.2691 37.1966L32.8027 58.7255C34.0422 59.9653 36.0547 59.9653 37.2961 58.7255L58.7258 37.2966C59.966 36.056 59.9672 34.0438 58.7273 32.804Z" fill="#F34F29"/>
</svg>
