<svg width="70" height="70" viewBox="0 0 70 70" fill="none" xmlns="http://www.w3.org/2000/svg">
<path d="M54.7297 34.6436C54.7297 32.1194 52.8172 29.9952 50.2496 29.3891L56 14H27.5025L33.266 29.4377C30.7792 30.0927 28.9461 32.1798 28.9461 34.6564C28.9461 36.4764 29.9496 38.0903 31.4739 39.0853C30.8727 39.862 30.1767 40.5784 29.3881 41.2577C27.9039 42.5204 26.2578 43.4908 24.4798 44.1343C22.8751 43.1512 22.1801 41.4155 22.8082 39.8617C25.2553 39.1824 27.0349 37.1071 27.0349 34.6679C27.0349 31.6708 24.3466 29.2427 21.0558 29.2427C17.7526 29.2427 15.0659 31.6823 15.0659 34.6804C15.0659 36.1613 15.7337 37.5199 16.8042 38.4903C16.7103 38.6609 16.6171 38.8299 16.5233 39.0121C15.6274 40.6877 14.6107 42.5808 14.2222 44.705C13.4468 48.9517 14.7171 52.363 17.7795 54.2922C19.5049 55.3728 21.4047 55.9189 23.4507 55.9189C26.9667 55.9189 30.538 54.3165 33.9876 52.7627C36.4489 51.6591 38.9895 50.5052 41.4904 49.9477C42.4135 49.7413 43.376 49.6195 44.3926 49.4863C46.4512 49.2195 48.578 48.9402 50.4905 47.9328C52.7236 46.756 54.248 44.7893 54.69 42.5322C55.0231 40.7963 54.69 39.0492 53.8335 37.5199C54.4185 36.675 54.7311 35.6713 54.7294 34.6436H54.7297ZM52.1225 34.6436C52.1225 36.3303 50.6109 37.7021 48.7522 37.7021C46.8935 37.7021 45.382 36.3303 45.382 34.6436C45.382 34.0972 45.5425 33.5758 45.8231 33.1268C45.9297 32.9562 46.0643 32.7872 46.1972 32.6412C46.3381 32.491 46.4951 32.3568 46.6655 32.2411L46.6796 32.2283C46.7859 32.1555 46.9063 32.0823 47.0268 32.0104C47.0268 32.0104 47.0399 32.0104 47.0399 31.9976C47.0934 31.9734 47.1472 31.9373 47.2014 31.913C47.2142 31.913 47.227 31.9002 47.2407 31.9002C47.2949 31.8772 47.3615 31.8529 47.4278 31.8283C47.4911 31.8062 47.5536 31.7819 47.6152 31.7555C47.6283 31.7555 47.6421 31.7423 47.6549 31.7423C47.7087 31.7312 47.7625 31.7066 47.8153 31.6951C47.8295 31.6951 47.8564 31.6823 47.8692 31.6823C47.9358 31.6708 47.9896 31.658 48.0562 31.6462H48.0703L48.2705 31.6091C48.2843 31.6091 48.3099 31.6091 48.324 31.5976C48.3778 31.5976 48.4306 31.5848 48.4845 31.5848H48.5511C48.6177 31.5848 48.6856 31.5733 48.765 31.5733H48.9393C48.9918 31.5733 49.0331 31.5733 49.0857 31.5848H49.1126C49.2202 31.5979 49.3265 31.6091 49.4342 31.6337C50.9585 31.9245 52.1225 33.1629 52.1225 34.6436ZM31.2327 16.4267H52.2685L47.4409 29.352C47.2407 29.3891 47.0396 29.4491 46.8397 29.5095L41.7585 20.1044L36.6628 29.4488C36.4616 29.3888 36.2477 29.3517 36.0347 29.3156L31.2327 16.4267ZM40.7944 33.5869C40.5407 32.4459 39.8985 31.427 38.9895 30.6745L41.7585 25.6021L44.5528 30.7834C43.7235 31.5359 43.122 32.4948 42.8811 33.5869H40.7944ZM34.0953 31.6705C34.1619 31.6573 34.2157 31.6462 34.2823 31.6334H34.322C34.3759 31.6219 34.43 31.6219 34.4825 31.6088H34.5363C34.5901 31.6088 34.6299 31.5973 34.6837 31.5973H35.2055C35.258 31.5973 35.299 31.6088 35.3387 31.6088C35.3656 31.6088 35.3784 31.6088 35.4053 31.6219C35.4591 31.6334 35.4988 31.6334 35.553 31.6462C35.5654 31.6462 35.5796 31.6462 35.6065 31.6577C35.6734 31.6705 35.74 31.6819 35.7935 31.6947H35.8066C35.8605 31.7062 35.9143 31.7177 35.9668 31.7423C35.9809 31.7423 35.9937 31.7551 36.0206 31.7551C36.0603 31.7666 36.1141 31.7794 36.1538 31.8037C36.1679 31.8037 36.1807 31.8152 36.1949 31.8152C36.2474 31.8398 36.3015 31.8526 36.3553 31.8769H36.3681C36.4347 31.8998 36.4886 31.9241 36.5424 31.9615H36.5555C36.609 31.9858 36.6628 32.0216 36.7166 32.0459C36.7298 32.0459 36.7298 32.059 36.7422 32.059C36.796 32.082 36.8361 32.1191 36.8899 32.1433L36.904 32.1548C37.0641 32.2641 37.2115 32.3859 37.3575 32.5076L37.3716 32.5191C37.5052 32.6523 37.6384 32.7984 37.7461 32.9562C38.0936 33.4419 38.2948 34.0125 38.2948 34.6315C38.2948 36.3185 36.7832 37.6889 34.9245 37.6889C33.0658 37.6889 31.5543 36.3185 31.5543 34.6315C31.5406 33.2112 32.6238 32.0101 34.0953 31.6705ZM20.9354 31.5845C22.7944 31.5845 24.3056 32.9562 24.3056 34.6429C24.3056 36.33 22.7944 37.7014 20.9354 37.7014C19.0767 37.7014 17.5652 36.33 17.5652 34.6429C17.5652 32.9562 19.0767 31.5845 20.9354 31.5845ZM52.0417 42.1076C51.748 43.6598 50.6904 45.02 49.1395 45.8326C47.6818 46.5978 45.8897 46.84 44.0041 47.0825C42.975 47.2158 41.8917 47.3618 40.8482 47.5925C38.0667 48.2117 35.3925 49.4256 32.7981 50.5896C29.4817 52.083 26.3513 53.4905 23.4507 53.4905C21.9392 53.4905 20.5882 53.1023 19.3051 52.2894C16.3631 50.4449 16.5092 46.9864 16.858 45.0929C17.1783 43.3202 18.0745 41.6577 18.9307 40.0681C18.9832 39.9706 19.0242 39.886 19.0767 39.7885C19.3717 39.886 19.6792 39.9591 19.9998 40.0077C19.4921 42.5805 20.9354 45.2379 23.7441 46.5493L24.2528 46.7914L24.8005 46.6093C27.1412 45.8568 29.3074 44.6315 31.2199 42.993C32.3032 42.0702 33.2263 41.0755 34.0018 39.9949C34.3092 40.0438 34.6171 40.0566 34.9245 40.0566C37.7064 40.0566 40.0458 38.3206 40.7149 35.9904H42.9609C43.63 38.3325 45.9704 40.0563 48.7522 40.0563C49.8624 40.0563 50.8919 39.7773 51.7736 39.3041C52.1225 40.2141 52.2288 41.1602 52.0417 42.1076Z" fill="#99425B"/>
<circle cx="35" cy="35" r="34" stroke="#99425B" stroke-width="2"/>
</svg>
