<svg width="70" height="70" viewBox="0 0 70 70" fill="none" xmlns="http://www.w3.org/2000/svg">
<circle cx="35" cy="35" r="34" fill="white" stroke="#486BB3" stroke-width="2"/>
<path d="M31.9466 30.3836C32.0969 30.4933 32.2797 30.5583 32.4788 30.5583C32.9663 30.5583 33.3644 30.1724 33.3847 29.693L33.4051 29.6808L33.7097 24.2939C33.3441 24.3386 32.9785 24.3996 32.6129 24.4808C30.6101 24.9358 28.8754 25.923 27.5185 27.2555L31.9344 30.3877L31.9466 30.3836ZM31.3576 38.2771C31.3061 38.049 31.1679 37.8499 30.9724 37.7218C30.7768 37.5937 30.5391 37.5466 30.3094 37.5905L30.3013 37.5783L24.9997 38.4761C25.7952 40.6788 27.2963 42.5569 29.2694 43.8183L31.3251 38.8539L31.3088 38.8336C31.3779 38.663 31.4022 38.4721 31.3576 38.2771ZM29.5944 34.4543C29.7732 34.4055 29.9397 34.2999 30.0657 34.1455C30.3704 33.7636 30.3176 33.2152 29.9519 32.8983L29.956 32.878L25.9219 29.2705C24.6918 31.2735 24.163 33.6289 24.4188 35.9655L29.5904 34.4746L29.5944 34.4543ZM33.5107 36.0386L34.9976 36.7536L36.4844 36.0427L36.8501 34.438L35.8222 33.1543H34.1729L33.141 34.438L33.5107 36.0386ZM36.5982 29.6727C36.6063 29.8596 36.6713 30.0424 36.7972 30.1968C37.1019 30.5786 37.6504 30.6477 38.0404 30.3633L38.0566 30.3714L42.4441 27.2596C40.7866 25.6386 38.6254 24.5783 36.2894 24.2939L36.5941 29.6727H36.5982ZM39.6776 37.5661C39.6085 37.5539 39.5394 37.5458 39.4704 37.5499C39.3526 37.5539 39.2347 37.5864 39.1251 37.6393C38.9147 37.7407 38.7516 37.9194 38.6699 38.1382C38.5881 38.3569 38.594 38.5988 38.6863 38.8133L38.6782 38.8214L40.7541 43.8346C42.7569 42.5589 44.2519 40.6536 45.036 38.4558L39.6897 37.5499L39.6776 37.5661ZM35.7938 40.223C35.7131 40.0749 35.5929 39.9521 35.4466 39.8682C35.3003 39.7843 35.1336 39.7426 34.9651 39.7477C34.6522 39.7599 34.3557 39.9346 34.1972 40.2271H34.1932L31.5851 44.9396C33.4525 45.5745 35.4598 45.6772 37.3822 45.2361C37.7397 45.1549 38.0891 45.0574 38.4263 44.9436L35.8141 40.2189H35.7938V40.223Z" fill="#486BB3"/>
<path d="M59.596 39.195L55.3548 20.7797C55.2441 20.302 55.027 19.8555 54.7196 19.4736C54.4121 19.0916 54.0224 18.784 53.5795 18.5738L36.4195 10.3756C35.9231 10.1396 35.3759 10.0307 34.827 10.0588C34.3904 10.0802 33.9623 10.1879 33.5676 10.3756L16.4076 18.5738C15.9654 18.785 15.5762 19.093 15.269 19.4748C14.9617 19.8566 14.7441 20.3025 14.6323 20.7797L10.4032 39.1991C10.305 39.6234 10.2939 40.0633 10.3707 40.4921C10.4476 40.9209 10.6106 41.3296 10.8501 41.6935C10.907 41.7828 10.972 41.8681 11.037 41.9535L22.9157 56.7206C23.2247 57.1038 23.6159 57.4126 24.0603 57.6242C24.5047 57.8359 24.991 57.945 25.4832 57.9435L44.5323 57.9394C45.5316 57.9394 46.4741 57.4885 47.0998 56.7166L58.9745 41.9453C59.2785 41.5633 59.4922 41.1175 59.5999 40.6413C59.7075 40.1651 59.7062 39.6707 59.596 39.195ZM53.0676 38.9716C52.9416 39.52 52.3526 39.8531 51.7432 39.7231C51.7391 39.7231 51.731 39.7231 51.727 39.7191C51.7188 39.7191 51.7148 39.715 51.7066 39.711C51.6213 39.6906 51.5157 39.6744 51.4426 39.6541C51.0932 39.5606 50.8373 39.4185 50.5204 39.2966C49.842 39.0528 49.2773 38.8497 48.7288 38.7685C48.4485 38.7481 48.3063 38.8781 48.152 38.9797C48.0788 38.9635 47.8473 38.9228 47.7132 38.9025C46.7301 41.9941 44.6338 44.6753 41.7941 46.3491C41.8429 46.4669 41.9282 46.7188 41.9648 46.7635C41.8998 46.9381 41.8023 47.1006 41.8876 47.3688C42.0866 47.8847 42.4076 48.3925 42.7976 48.9978C42.9845 49.2781 43.1795 49.4935 43.3501 49.8185C43.3907 49.8956 43.4435 50.0135 43.4841 50.0947C43.7482 50.6594 43.5532 51.3094 43.0454 51.5531C42.5335 51.801 41.8998 51.541 41.6235 50.9722C41.5829 50.891 41.5301 50.7853 41.4976 50.7081C41.3513 50.375 41.3026 50.0906 41.201 49.7656C40.9695 49.0831 40.7745 48.5185 40.4982 48.0391C40.3398 47.8075 40.1488 47.7791 39.9741 47.7222C39.9416 47.6653 39.8198 47.4419 39.7548 47.3281C39.186 47.5435 38.601 47.7222 37.9916 47.8603C35.3266 48.4656 32.6576 48.2219 30.277 47.3038L30.0454 47.7263C29.8707 47.771 29.7041 47.8197 29.6026 47.9416C29.2288 48.3885 29.0785 49.1035 28.8063 49.786C28.7048 50.1069 28.656 50.3953 28.5098 50.7285C28.4773 50.8056 28.4204 50.9113 28.3838 50.9885V50.9925L28.3798 50.9966C28.1076 51.5613 27.4738 51.8213 26.962 51.5775C26.4541 51.3338 26.2632 50.6838 26.5232 50.1191C26.5638 50.0378 26.6126 49.92 26.6532 49.8428C26.8238 49.5219 27.0148 49.3025 27.2057 49.0222C27.5957 48.4128 27.937 47.8685 28.136 47.3525C28.1848 47.1819 28.1116 46.9463 28.0466 46.7716L28.2335 46.3247C25.4995 44.7038 23.3423 42.1241 22.3104 38.9269L21.8635 39.0041C21.7416 38.935 21.502 38.7766 21.2745 38.7969C20.726 38.8781 20.1613 39.0813 19.4829 39.325C19.166 39.4469 18.9141 39.585 18.5607 39.6785C18.4876 39.6988 18.382 39.7191 18.2966 39.7394C18.2885 39.7394 18.2845 39.7435 18.2763 39.7475C18.2723 39.7475 18.2641 39.7475 18.2601 39.7516C17.6507 39.8816 17.0616 39.5485 16.9357 39C16.8098 38.4516 17.1998 37.895 17.8051 37.7488C17.8091 37.7488 17.8173 37.7447 17.8213 37.7447C17.8254 37.7447 17.8254 37.7447 17.8295 37.7406C17.9148 37.7203 18.0245 37.6919 18.1057 37.6756C18.4632 37.6066 18.7557 37.6228 19.0929 37.5985C19.812 37.5213 20.4051 37.4603 20.9332 37.2938C21.0998 37.2247 21.2623 36.9931 21.376 36.8469L21.8066 36.721C21.3232 33.3816 22.1398 30.1072 23.9029 27.4544L23.5738 27.1619C23.5535 27.0319 23.5251 26.7394 23.3666 26.5688C22.9645 26.191 22.4526 25.8741 21.8391 25.4963C21.5466 25.3256 21.2785 25.216 20.986 24.9966C20.9251 24.9519 20.8398 24.8788 20.7748 24.826C20.7707 24.8219 20.7626 24.8178 20.7585 24.8138C20.267 24.4197 20.1532 23.7413 20.5066 23.2985C20.7057 23.0506 21.0104 22.9247 21.3232 22.9369C21.567 22.945 21.8229 23.0344 22.0382 23.205C22.1073 23.2619 22.2048 23.335 22.2657 23.3878C22.542 23.6235 22.7085 23.8591 22.9401 24.1069C23.4479 24.6228 23.8663 25.0494 24.3254 25.3581C24.5651 25.5003 24.752 25.4435 24.9348 25.4191C24.9957 25.4638 25.1907 25.606 25.3045 25.6831C27.0513 23.8266 29.3507 22.4535 32.0157 21.8481C32.6373 21.706 33.2548 21.6125 33.8723 21.5638L33.8966 21.1291C34.0348 20.995 34.1851 20.8081 34.2298 20.5969C34.2745 20.0444 34.2013 19.4513 34.116 18.7322C34.0673 18.3991 33.9901 18.1188 33.9738 17.7572C33.9698 17.6841 33.9738 17.5785 33.9779 17.4931C33.9779 17.485 33.9738 17.4728 33.9738 17.4647C33.9738 16.835 34.4329 16.3231 35.0016 16.3231C35.5704 16.3231 36.0295 16.835 36.0295 17.4647C36.0295 17.5541 36.0335 17.676 36.0335 17.7572C36.0213 18.1188 35.9401 18.3991 35.8913 18.7322C35.806 19.4472 35.7288 20.0444 35.7735 20.5969C35.8141 20.8731 35.9766 20.9828 36.1107 21.1088C36.1148 21.1819 36.127 21.4297 36.1351 21.5678C39.4013 21.8563 42.432 23.3513 44.6623 25.6872L45.0523 25.4069C45.1863 25.415 45.4748 25.4556 45.6738 25.3378C46.1329 25.0291 46.5513 24.5985 47.0591 24.0866C47.2907 23.8388 47.4613 23.6072 47.7376 23.3675C47.7985 23.3147 47.896 23.2416 47.9651 23.1847C48.4566 22.7906 49.1432 22.8353 49.4966 23.2781C49.8501 23.721 49.7363 24.3994 49.2448 24.7935C49.1757 24.8503 49.0863 24.9275 49.0173 24.9763C48.7248 25.1916 48.4566 25.3013 48.1641 25.476C47.5507 25.8538 47.0388 26.1706 46.6366 26.5485C46.4457 26.7516 46.462 26.9466 46.4416 27.1294C46.3848 27.1822 46.1857 27.361 46.076 27.4544C46.9849 28.8068 47.6376 30.3146 48.0016 31.9028C48.3754 33.5238 48.4323 35.1406 48.217 36.6966L48.6313 36.8185C48.7045 36.9241 48.8588 37.18 49.0741 37.2653C49.6023 37.4319 50.1954 37.4928 50.9145 37.57C51.2516 37.5985 51.5441 37.5822 51.9016 37.6472C51.9869 37.6635 52.1129 37.696 52.1982 37.7163C52.8076 37.8666 53.1935 38.4231 53.0676 38.9716Z" fill="#486BB3"/>
<path d="M44.0488 29.2705L40.0351 32.8618L40.0391 32.8739C39.901 32.9958 39.7954 33.1583 39.7507 33.3533C39.641 33.8286 39.9295 34.2999 40.3926 34.4299L40.3966 34.4502L45.5926 35.9452C45.7023 34.8239 45.6373 33.6621 45.3691 32.5002C45.101 31.3261 44.6501 30.2414 44.0488 29.2705Z" fill="#486BB3"/>
</svg>
