<svg width="70" height="70" viewBox="0 0 70 70" fill="none" xmlns="http://www.w3.org/2000/svg">
<circle cx="35" cy="35" r="34" stroke="#00618A" stroke-width="2"/>
<path d="M57.4931 55.9819L56.6219 55.098C55.7963 53.951 54.7343 52.9434 53.6196 52.1068C52.7307 51.4393 50.7352 50.5375 50.3642 49.4557L50.2959 49.3878C50.9264 49.3132 51.6624 49.0749 52.2442 48.9115C53.2213 48.6376 54.0279 48.7083 55.037 48.4359C55.4919 48.3 56.0025 48.1638 56.3355 48.0279V47.7561C56.0025 47.2088 55.5272 46.484 54.9711 45.9886C53.516 44.6925 51.9601 43.3974 50.3249 42.3173C49.4181 41.7187 48.313 41.3296 47.3522 40.8219C47.0289 40.6508 46.469 40.562 46.2552 40.2777C45.75 39.6045 45.4799 38.7509 45.0903 37.9666C44.2747 36.3231 43.4754 34.5284 42.7527 32.7992C42.2598 31.6202 41.9391 30.4579 41.3243 29.4001C38.3737 24.3247 35.1982 21.2617 30.2786 18.2507C29.2312 17.6103 27.971 17.3577 26.6389 17.0267C25.9249 16.9818 25.2098 16.9361 24.4951 16.8905C24.0585 16.7002 23.6046 16.1417 23.1956 15.8707C21.5651 14.7933 17.3845 12.4502 16.1773 15.5309C15.415 17.4755 17.3163 19.3723 17.9963 20.3579C18.4742 21.0485 19.0853 21.8237 19.426 22.601C19.6508 23.1122 19.6891 23.6247 19.8813 24.1651C20.3535 25.4967 20.7642 26.9455 21.3756 28.1757C21.6843 28.7987 22.0247 29.4544 22.4153 30.0112C22.6545 30.353 23.0648 30.5035 23.1297 31.031C22.7287 31.6185 22.7058 32.5306 22.4803 33.2748C21.4645 36.6249 21.8482 40.7892 23.3252 43.2685C23.7781 44.0301 24.8458 45.6625 26.3142 45.036C27.5984 44.489 27.3885 42.7929 27.7559 41.2968C27.8388 40.9581 27.6943 40.7087 28.0273 40.4812V40.5491C28.368 41.3762 28.7325 42.1923 29.1203 42.9964C29.9862 44.4552 31.4146 45.9795 32.7164 47.0081C33.3915 47.5415 34.0219 48.4634 34.688 48.7756V48.7404H34.7616C34.5927 48.392 34.328 48.3338 34.1122 48.1119C33.6036 47.5906 33.0378 46.9335 32.6178 46.336C31.4336 44.6542 30.3872 42.8093 29.4337 40.893C28.9781 39.978 28.5821 38.9666 28.1985 38.0356C28.0509 37.6767 28.0526 37.1325 27.7442 36.9468C27.3236 37.629 26.7045 38.1802 26.3791 38.9861C25.8592 40.2738 25.7923 41.8445 25.5995 43.4727C25.4853 43.5152 25.5362 43.4859 25.4693 43.5403C24.5641 43.3121 24.2464 42.3375 23.9097 41.501C23.0588 39.3861 22.9009 35.981 23.6496 33.5469C23.8434 32.9167 24.7189 30.9335 24.3643 30.3513C24.1951 29.7711 23.6369 29.4349 23.3249 28.9914C22.9382 28.443 22.5526 27.721 22.2848 27.0876C21.5884 25.4393 21.2637 23.5881 20.5304 21.9213C20.1797 21.1245 19.5872 20.3179 19.1007 19.6099C18.5621 18.8249 17.9587 18.2469 17.5407 17.2981C17.3925 16.9609 17.1907 16.4208 17.4108 16.0741C17.4808 15.8403 17.5797 15.7428 17.8008 15.6665C18.1782 15.3623 19.2272 15.7675 19.6202 15.9379C20.6623 16.3908 21.5321 16.8089 22.415 17.4208C22.8383 17.7148 23.2672 18.0793 23.7795 18.4277H24.3643C25.2791 18.4277 26.3038 18.5085 27.1587 18.7803C28.6691 19.2608 30.0228 20.0144 31.2524 20.8266C34.9977 23.301 38.0599 26.8263 40.1551 31.0275C40.4921 31.7042 40.638 32.3512 40.9347 33.0686C41.5335 34.5155 42.2881 36.005 42.8839 37.42C43.4787 38.8321 44.0582 40.2568 44.8988 41.4316C45.3407 42.049 47.0472 42.3807 47.8228 42.7239C48.3667 42.964 49.2575 43.2148 49.7724 43.5392C50.7559 44.1601 51.7087 44.8994 52.6318 45.5792C53.0927 45.9186 54.5101 46.6642 54.5811 47.2788C52.2955 47.2133 50.55 47.4363 49.0577 48.0944C48.6338 48.2815 47.957 48.2868 47.8878 48.8425C48.1209 49.0979 48.1572 49.4797 48.3424 49.794C48.6984 50.3968 49.3002 51.2058 49.837 51.6295C50.4238 52.0929 51.0279 52.588 51.6567 52.989C52.7754 53.7022 54.0236 54.1099 55.1006 54.8245C55.7354 55.2461 56.4188 55.7767 57.0372 56.2519C57.3436 56.4871 57.3339 56.8526 58 57V56.9324C57.6673 56.6554 57.6849 56.2729 57.4931 55.9819ZM25.5342 21.3778C25.0576 21.3683 24.697 21.4325 24.3639 21.5133V21.5642H24.4299C24.6573 21.9126 25.0586 22.376 25.3394 22.7969L25.9895 24.2282L26.0537 24.163C26.4564 23.8658 26.6409 23.3927 26.6385 22.6679C26.4777 22.4906 26.4534 22.2687 26.3142 22.0568C26.1283 21.7749 25.7683 21.615 25.5342 21.3778Z" fill="#00618A"/>
</svg>
