<svg width="73" height="70" viewBox="0 0 73 70" fill="none" xmlns="http://www.w3.org/2000/svg">
<path d="M71.6047 35C71.6047 53.7436 55.834 69 36.3023 69C16.7706 69 1 53.7436 1 35C1 16.2564 16.7706 1 36.3023 1C55.834 1 71.6047 16.2564 71.6047 35Z" fill="white" stroke="#DF234F" stroke-width="2"/>
<g clip-path="url(#clip0_793_3518)">
<path d="M40.5516 12.1079C40.2161 12.1079 39.8807 12.1798 39.5825 12.2876C40.2161 12.6829 40.5516 13.222 40.738 13.8329C40.738 13.9048 40.7753 13.9767 40.7753 14.0485C40.7753 14.1204 40.8125 14.1923 40.8125 14.2642C40.8498 15.3063 40.5143 15.4501 40.2907 16.061C39.9179 16.8517 40.0298 17.7142 40.4771 18.397C40.5143 18.4688 40.5516 18.5767 40.6262 18.6485C40.1416 15.6298 42.7508 15.1985 43.2354 14.2642C43.2727 13.4376 42.5645 12.8985 42.0053 12.5032C41.4462 12.1798 40.9989 12.1079 40.5516 12.1079ZM44.4655 12.7548C44.4282 13.0423 44.4655 12.9704 44.4282 13.1142C44.4282 13.222 44.4282 13.3298 44.3909 13.4376C44.3536 13.5454 44.3536 13.6173 44.3164 13.7251C44.2791 13.8329 44.2418 13.9048 44.2045 14.0126C44.1673 14.0845 44.13 14.1563 44.0927 14.2642C44.0554 14.3001 44.0182 14.372 43.9809 14.4079C43.9436 14.4438 43.9436 14.4798 43.9063 14.5157C43.8318 14.5876 43.7945 14.6954 43.72 14.7673L43.4963 14.9829C43.4218 15.0548 43.3472 15.1267 43.2727 15.1626C43.0117 15.3423 42.7135 15.486 42.4526 15.6657C42.3781 15.7376 42.2663 15.7735 42.1917 15.8454C42.1172 15.9173 42.0426 15.9532 41.9681 16.0251L41.7444 16.2407C41.6699 16.3126 41.5953 16.3845 41.558 16.4923C41.4835 16.5642 41.4462 16.672 41.3717 16.7438C41.3344 16.8517 41.2971 16.9235 41.2226 17.0313C41.1853 17.1392 41.148 17.211 41.1107 17.3188C41.0735 17.4267 41.0362 17.5345 41.0362 17.6063C41.0362 17.6423 41.0362 17.7142 40.9989 17.7501C40.9989 17.786 40.9989 17.8579 40.9616 17.8938V18.397C40.9616 18.5048 40.9616 18.5767 40.9989 18.6845C40.9989 18.7923 41.0362 18.8642 41.0735 18.972C41.1107 19.0798 41.148 19.1517 41.1853 19.2595C41.2226 19.3313 41.2598 19.3673 41.2598 19.4392L38.427 18.397C37.9424 18.2532 37.4951 18.1454 37.0105 18.0376C36.7496 17.9657 36.4887 17.9298 36.2277 17.8579C35.4823 17.7142 34.7368 17.6063 33.9913 17.5345H33.9167C33.1712 17.4626 32.463 17.4267 31.7175 17.4267C31.1584 17.4267 30.6365 17.4626 30.1147 17.4985C29.3692 17.5345 28.6237 17.6423 27.8782 17.7501L27.3191 17.8579C26.9463 17.9298 26.5736 18.0017 26.2009 18.1095C26.0145 18.1454 25.8281 18.2173 25.6417 18.2532C25.4554 18.3251 25.269 18.397 25.1199 18.4688C24.9708 18.5407 24.859 18.5767 24.7099 18.6485C24.6726 18.6485 24.6726 18.6485 24.6353 18.6845C24.5235 18.7563 24.4117 18.7923 24.2998 18.8642C24.2626 18.8642 24.2253 18.9001 24.2253 18.9001C24.0762 18.972 23.9644 19.0438 23.8525 19.0798C23.778 19.1157 23.6662 19.1517 23.5916 19.1876C23.5543 19.2235 23.5171 19.2235 23.4798 19.2595C23.368 19.3313 23.2562 19.3673 23.1443 19.4392C23.0325 19.511 22.9207 19.547 22.8461 19.6188C22.7716 19.6907 22.6598 19.7267 22.5852 19.7985C22.5852 19.7985 22.5479 19.7985 22.5479 19.8345C22.4734 19.8704 22.3988 19.9423 22.3243 20.0142L22.287 20.0501C22.2125 20.086 22.1752 20.1579 22.1006 20.1938C22.0634 20.1938 22.0634 20.2298 22.0261 20.2298C21.9515 20.2657 21.9143 20.3376 21.8397 20.3735C21.8397 20.4095 21.8024 20.4095 21.8024 20.4095L21.5788 20.6251L21.5415 20.661L21.3179 20.8767C21.3179 20.8767 21.3179 20.9126 21.2806 20.9126L21.0942 21.0923C21.0569 21.1282 21.0197 21.1282 21.0197 21.1642L20.796 21.3798C20.796 21.4157 20.7587 21.4157 20.7587 21.4517L20.4605 21.7392L20.4233 21.7751C20.2369 21.9907 20.0133 22.1704 19.7896 22.3501C19.566 22.5298 19.3423 22.7095 19.0814 22.8892C18.8205 23.0688 18.5968 23.2126 18.3359 23.3563C18.075 23.5001 17.814 23.6079 17.5531 23.7157C17.2922 23.8235 17.0313 23.9313 16.7704 24.0032C16.2485 24.111 15.7267 24.3267 15.2794 24.3626C15.2794 24.1829 15.1675 24.2188 15.0557 24.2188C14.9439 24.2548 14.8321 24.2548 14.7575 24.2907C14.6457 24.3267 14.5711 24.3626 14.4593 24.3985C14.3475 24.4345 14.2729 24.4704 14.1611 24.5423C14.0866 24.6142 13.9747 24.6501 13.9002 24.722C13.8256 24.7938 13.7138 24.8657 13.6393 24.9376C13.5647 25.0095 13.4529 25.0813 13.3784 25.1532C13.3038 25.2251 13.2293 25.297 13.1547 25.4048C13.0802 25.5126 13.0056 25.5845 12.9683 25.6923C12.8938 25.7642 12.8565 25.872 12.782 25.9798C12.7447 26.0876 12.6701 26.1954 12.6329 26.3032L12.521 26.6267C12.4838 26.7345 12.4838 26.8063 12.4465 26.9142V26.9501C12.4092 27.0579 12.4092 27.2017 12.4092 27.2735C12.4465 27.2376 12.4465 27.3095 12.4465 27.3813V27.5251C12.4465 27.597 12.4838 27.6688 12.4838 27.7407C12.521 27.8126 12.521 27.8845 12.5583 27.9563C12.5956 28.0282 12.6329 28.1001 12.7074 28.172C12.7447 28.2438 12.8192 28.3157 12.8565 28.3876C12.9311 28.4595 13.0056 28.5313 13.0802 28.5673C13.1547 28.6392 13.2293 28.711 13.3038 28.747C13.602 28.9985 13.6766 29.0704 14.0493 29.286C14.1238 29.322 14.1611 29.3579 14.2357 29.3938H14.2729V29.4657C14.2729 29.5735 14.3102 29.6454 14.3475 29.7532C14.3848 29.861 14.422 29.9688 14.4593 30.0407L14.5711 30.2563C14.5711 30.2923 14.6084 30.2923 14.6084 30.3282C14.6457 30.436 14.7202 30.5079 14.7575 30.5798C14.8321 30.6517 14.8693 30.7595 14.9439 30.8313L15.1675 31.047L15.3912 31.2626H15.4285C15.503 31.3345 15.5776 31.3704 15.6521 31.4423C15.7267 31.5142 15.8385 31.5501 15.913 31.586C15.9876 31.622 16.0994 31.6938 16.2112 31.7298C16.2858 31.7657 16.3603 31.8017 16.4722 31.8017C16.4722 31.8017 16.5094 31.8017 16.5094 31.8376C16.5467 31.8376 16.6213 31.8735 16.6585 31.8735C16.6213 32.5204 16.6213 33.1313 16.6958 33.347C16.8076 33.5985 17.3667 32.8438 17.8886 32.0173C17.814 32.8438 17.7768 33.8142 17.8886 34.1017C18.0377 34.3892 18.7459 33.4548 19.4169 32.4485C28.1391 30.5079 36.1159 36.3298 36.9732 44.5595C36.8241 43.2657 35.1841 42.547 34.4013 42.7267C34.0285 43.5892 33.3949 44.7392 32.3885 45.422C32.463 44.6313 32.4257 43.8407 32.2766 43.0501C32.0157 44.1282 31.4939 45.1704 30.7484 46.0329C29.5928 46.1048 28.4001 45.5657 27.8037 44.7392C27.7664 44.7032 27.7291 44.6313 27.6918 44.5954C27.6546 44.5235 27.6173 44.4157 27.58 44.3438C27.5427 44.272 27.5055 44.1642 27.5055 44.0923V43.8407V43.661C27.5055 43.5892 27.5427 43.4813 27.58 43.4095C27.6173 43.3376 27.6173 43.2298 27.6546 43.1579C27.6918 43.086 27.7291 42.9782 27.8037 42.9063C28.0273 42.3313 28.0273 41.8642 27.6173 41.6126L27.3936 41.5048C27.3564 41.5048 27.2818 41.4688 27.2445 41.4688C27.2073 41.4688 27.17 41.4329 27.1327 41.4329C27.0582 41.397 26.9463 41.397 26.8718 41.361C26.7972 41.3251 26.6854 41.3251 26.6109 41.3251C26.5363 41.3251 26.4245 41.2892 26.35 41.2892H26.1636C26.0518 41.2892 25.9772 41.2892 25.9027 41.3251C25.8281 41.3251 25.7163 41.361 25.6417 41.361C25.5672 41.397 25.4554 41.397 25.3808 41.4329C25.3063 41.4688 25.2317 41.5048 25.1199 41.5407L24.8962 41.6485C22.0261 43.4454 23.7407 47.686 25.679 48.9079C24.9335 49.0517 24.188 49.1954 23.9644 49.3392L23.9271 49.3751C24.4489 49.6985 25.0081 49.9501 25.6045 50.1657C26.3872 50.4173 27.2445 50.6329 27.6173 50.7407C28.6237 50.9563 29.6674 51.0282 30.7111 50.9563C36.1532 50.597 40.6262 46.572 41.4462 41.3251C41.4835 41.4329 41.4835 41.5407 41.5208 41.6485C41.558 41.8642 41.5953 42.0798 41.6326 42.3313C41.6699 42.4392 41.6699 42.547 41.6699 42.6548V42.6907C41.6699 42.7985 41.7071 42.9063 41.7071 43.0142C41.7071 43.1579 41.7444 43.2657 41.7444 43.4095V44.9188C41.7444 45.0267 41.7071 45.0985 41.7071 45.2063V45.3142C41.7071 45.422 41.6699 45.5298 41.6699 45.6735C41.6326 45.7813 41.6326 45.8892 41.5953 45.997V46.0329C41.558 46.1407 41.558 46.2485 41.5208 46.3563V46.3923C41.4835 46.5001 41.4835 46.6079 41.4462 46.7157V46.7517L41.3344 47.0751V47.111C41.2971 47.2188 41.2598 47.3626 41.2226 47.4704C41.1853 47.5782 41.148 47.686 41.0735 47.8298C41.0362 47.9376 40.9989 48.0813 40.9244 48.1892C40.8871 48.297 40.8125 48.4048 40.7753 48.5485C40.738 48.6563 40.6634 48.7642 40.6262 48.872C40.6262 48.9079 40.5889 48.9438 40.5889 48.9438C40.5889 48.9438 40.5889 48.9798 40.5516 48.9798C39.7688 50.5251 38.5761 51.8907 37.0851 52.9688C36.9732 53.0407 36.8987 53.1126 36.7869 53.1845C36.7496 53.2204 36.7123 53.2204 36.7123 53.2563C36.6378 53.3282 36.5259 53.3642 36.4514 53.436L36.4887 53.5079C36.675 53.472 36.8241 53.472 37.0105 53.436C37.346 53.4001 37.6442 53.3282 37.9797 53.2563C38.0542 53.2563 38.166 53.2204 38.2406 53.1845C38.3151 53.1845 38.3524 53.1485 38.427 53.1485C38.5015 53.1485 38.6133 53.1126 38.6879 53.1126C38.7624 53.0767 38.837 53.0767 38.9115 53.0407C40.1416 52.7532 41.3344 52.3579 42.4899 51.8907C40.5143 54.4782 37.9051 56.5626 34.8486 57.9282C36.265 57.8204 37.6815 57.6048 39.0606 57.2095C44.0182 55.8079 48.1929 52.5735 50.6903 48.2251C50.1685 50.9563 49.0502 53.5798 47.3729 55.8798C48.5657 55.1251 49.6466 54.2267 50.6531 53.2563C53.4114 50.4892 55.2379 46.9313 55.8342 43.1579C56.2443 45.0267 56.3934 46.9673 56.207 48.872C65.1157 36.9048 56.9525 24.5063 53.5232 21.236C53.5232 21.2001 53.4859 21.2001 53.4859 21.1642C53.4859 21.3079 53.4859 21.4517 53.4487 21.5954C53.4114 21.8829 53.3741 22.1345 53.3368 22.386C53.2623 22.6376 53.1877 22.9251 53.1132 23.1767C53.0386 23.4282 52.9268 23.6798 52.815 23.9313C52.7032 24.1829 52.5913 24.4345 52.4422 24.6501C52.2931 24.8657 52.1441 25.1173 51.9949 25.3329C51.8459 25.5485 51.6595 25.7642 51.4731 25.9798C51.2867 26.1954 51.1004 26.3751 50.8767 26.5907C50.7649 26.6985 50.6531 26.8063 50.504 26.8782C50.3921 26.9501 50.3176 27.022 50.2058 27.1298C49.9821 27.3095 49.7585 27.4532 49.4975 27.597C49.2739 27.7407 49.013 27.8845 48.7521 27.9923L47.9693 28.3157C47.7084 28.4235 47.4474 28.4954 47.1865 28.5673C46.9256 28.6392 46.6274 28.711 46.3665 28.747C46.0683 28.7829 45.8074 28.8188 45.5464 28.8548C45.3601 28.8548 45.1364 28.8907 44.95 28.8907C44.6518 28.8907 44.3909 28.8548 44.13 28.8548C43.8318 28.8188 43.5709 28.7829 43.3099 28.747C43.0117 28.711 42.7508 28.6392 42.4899 28.5313C42.7508 28.4954 43.049 28.4954 43.3099 28.4235C43.6081 28.3876 43.8691 28.3157 44.13 28.2438C44.3909 28.172 44.6891 28.1001 44.9128 27.9923L45.6955 27.6688C45.9564 27.561 46.1801 27.4173 46.441 27.2735C46.6647 27.1298 46.9256 26.9501 47.1492 26.8063C47.3729 26.6267 47.5965 26.447 47.7829 26.2673C48.0066 26.0876 48.1929 25.872 48.3793 25.6923C48.5657 25.4767 48.7521 25.261 48.9011 25.0454C48.9384 25.0095 48.9384 24.9735 48.9757 24.9376C49.0875 24.7579 49.2366 24.5423 49.3484 24.3626C49.4975 24.111 49.6094 23.8954 49.7212 23.6438C49.833 23.3923 49.9448 23.1407 50.0194 22.8892L50.243 22.1345C50.2803 21.847 50.3549 21.5954 50.3549 21.3438C50.3921 21.0563 50.3921 20.8048 50.3921 20.5532C50.3921 20.3735 50.3921 20.1579 50.3549 19.9782C50.3176 19.6907 50.2803 19.4392 50.243 19.1876C50.2058 18.9001 50.1312 18.6485 50.0567 18.397C49.9821 18.1454 49.8703 17.8938 49.7957 17.6423C49.6839 17.3907 49.5721 17.1392 49.4603 16.9235C49.3112 16.672 49.1993 16.4563 49.0502 16.2048C48.9011 15.9892 48.7148 15.7735 48.5657 15.5579C48.3793 15.3423 48.1929 15.1626 48.0066 14.947C47.8947 14.8392 47.7829 14.7313 47.6711 14.6595C47.112 14.2282 46.5528 13.8688 45.9564 13.5095C45.8819 13.4735 45.8073 13.4376 45.6955 13.4017C45.211 13.0063 44.8382 12.8985 44.4655 12.7548Z" fill="#DF234F"/>
</g>
<defs>
<clipPath id="clip0_793_3518">
<rect width="47.7116" height="46" fill="white" transform="translate(12.4465 12)"/>
</clipPath>
</defs>
</svg>
