<svg width="70" height="70" viewBox="0 0 70 70" fill="none" xmlns="http://www.w3.org/2000/svg">
<circle cx="35" cy="35" r="34" fill="white" stroke="#6181B6" stroke-width="2"/>
<path d="M35 20.4871C19.1844 20.4871 6.36218 26.9849 6.36218 35C6.36218 43.0152 19.1844 49.513 35 49.513C50.8156 49.513 63.6378 43.0152 63.6378 35C63.6378 26.9849 50.8156 20.4871 35 20.4871ZM27.5483 37.8275C26.8648 38.4669 26.1059 38.7308 25.2702 39.0027C24.4344 39.275 23.3708 39.2188 22.0775 39.2188H19.1464L18.3341 43.9063H14.9117L17.9656 27.9688H24.5469C26.5269 27.9688 27.9711 28.5383 28.8791 29.5775C29.787 30.6167 30.0598 32.0919 29.698 33.9542C29.5484 34.7216 29.2967 35.435 28.9414 36.0707C28.5732 36.7265 28.1029 37.3195 27.5483 37.8275ZM37.5378 39.2188L38.8883 32.4594C39.042 31.6682 38.9858 31.0803 38.7191 30.793C38.4519 30.5052 37.8837 30.3125 37.0152 30.3125H34.3011L32.5522 39.2188H29.1566L32.2105 23.75H35.6061L34.7942 27.9688H37.8191C39.7227 27.9688 41.0352 28.3508 41.7575 29.0146C42.4798 29.6783 42.6964 30.5877 42.4077 32.0746L40.9869 39.2188H37.5378ZM56.4092 33.9791C56.2602 34.7464 56.008 35.4477 55.6531 36.0828C55.2978 36.7189 54.8337 37.3007 54.2605 37.8275C53.577 38.4669 52.8176 38.7308 51.9823 39.0027C51.147 39.275 50.0825 39.2188 48.7892 39.2188H45.8581L45.0462 43.9063H41.6239L44.6773 27.9688H51.2591C53.2391 27.9688 54.6833 28.5383 55.5908 29.5775C56.4978 30.6167 56.7711 32.1172 56.4092 33.9791ZM49.962 30.3125H47.6178L46.3395 36.875H48.4217C49.8008 36.875 50.8292 36.7391 51.5042 36.2188C52.1802 35.6994 52.6353 34.8932 52.872 33.6777C53.0989 32.51 52.9958 31.5992 52.5627 31.1192C52.1291 30.6392 51.2623 30.3125 49.962 30.3125ZM23.2503 30.3125H20.9056L19.6273 36.875H21.7091C23.0886 36.875 24.1166 36.7391 24.792 36.2188C25.4675 35.6994 25.9231 34.8932 26.1594 33.6777C26.3862 32.51 26.2831 31.5992 25.85 31.1192C25.4169 30.6392 24.5506 30.3125 23.2503 30.3125Z" fill="#6181B6"/>
</svg>
