<svg width="70" height="70" viewBox="0 0 70 70" fill="none" xmlns="http://www.w3.org/2000/svg">
<path d="M54.1943 18.8218C49.2838 12.9739 39.5842 11.2407 32.5737 14.958L20.2574 21.4893C18.5913 22.3587 17.1616 23.5075 16.0595 24.8629C14.9575 26.2183 14.2078 27.7501 13.8582 29.3602C13.7024 30.0827 13.6231 30.8197 13.6217 31.5588C13.6292 33.5632 14.2198 35.5364 15.3428 37.3098C14.2899 38.6408 13.5711 40.1354 13.2301 41.7036C12.8808 43.3427 12.9298 45.0416 13.3728 46.6578C13.8162 48.2847 14.6454 49.8217 15.812 51.1788C20.7222 57.0263 30.4435 58.7595 37.4323 55.0426L49.7358 48.5109C51.401 47.6406 52.8289 46.4904 53.9282 45.1336C55.0272 43.7768 55.7731 42.2437 56.1179 40.6328C56.2761 39.9086 56.3555 39.174 56.3544 38.4376C56.3513 36.437 55.7683 34.467 54.6546 32.6939C55.7071 31.3639 56.4259 29.8707 56.7676 28.3039C56.9202 27.5789 56.9979 26.8446 57 26.1087C57.0007 23.4979 56.0196 20.9524 54.1943 18.8287V18.8218V18.8218Z" fill="#FF3E00"/>
<path d="M31.3699 51.7292C30.561 51.9026 29.736 51.9902 28.9087 51.9905C27.3292 51.9908 25.773 51.6725 24.3736 51.0624C22.9745 50.4525 21.7738 49.5694 20.8745 48.4887C19.7766 47.2113 19.1867 45.6799 19.1877 44.1093C19.1884 43.6666 19.2345 43.225 19.3252 42.7917C19.3991 42.4656 19.4986 42.1459 19.6226 41.8354L19.855 41.2483L20.483 41.6456C21.9415 42.5363 23.5713 43.2145 25.3024 43.6511L25.7589 43.7656L25.7159 44.1451V44.342C25.7149 44.8167 25.8926 45.2805 26.2236 45.6668C26.4911 45.9962 26.8513 46.2663 27.2728 46.4533C27.7044 46.6427 28.1706 46.7407 28.6419 46.7411C28.8908 46.7419 29.1389 46.7155 29.382 46.6623C29.6458 46.6049 29.9006 46.5122 30.1397 46.3867L42.4425 39.8231C42.8114 39.6285 43.1152 39.3593 43.3253 39.0407C43.535 38.722 43.6443 38.3642 43.6429 38.0005C43.6395 37.5258 43.4573 37.0638 43.1221 36.6791C42.8506 36.3539 42.4882 36.0885 42.0665 35.905C41.6346 35.7197 41.1693 35.6249 40.6994 35.6265C40.4505 35.6258 40.2023 35.6523 39.9593 35.7056C39.6967 35.7617 39.4433 35.8544 39.2064 35.981L34.516 38.4732C33.7266 38.8867 32.8859 39.1937 32.0159 39.3862C31.2115 39.5587 30.3848 39.6467 29.5543 39.6474C27.9751 39.6474 26.4196 39.3291 25.0205 38.72C23.6215 38.1108 22.4204 37.2288 21.5201 36.1494C20.4235 34.8713 19.8337 33.3403 19.8333 31.77C19.834 31.3283 19.8801 30.8876 19.9708 30.4524C20.1815 29.4844 20.6312 28.5635 21.2922 27.7481C21.9529 26.9324 22.8102 26.2401 23.8095 25.7152L36.1254 19.1873C36.8982 18.7783 37.741 18.4689 38.6255 18.2705C39.4299 18.099 40.2566 18.0127 41.0868 18.0127C42.6697 18.0093 44.23 18.3255 45.6339 18.9343C47.0378 19.5428 48.243 20.4262 49.1467 21.5076C50.2367 22.7888 50.8191 24.3209 50.8122 25.8905C50.8114 26.3345 50.7652 26.7772 50.6743 27.2119C50.6006 27.5378 50.5013 27.8575 50.3773 28.1678L50.145 28.755L49.5169 28.372C48.0594 27.48 46.4294 26.8018 44.6975 26.3666L44.241 26.2487L44.284 25.8688V25.6722C44.284 25.1961 44.1066 24.732 43.7763 24.3436C43.5051 24.0187 43.1438 23.7537 42.7223 23.5702C42.2913 23.3848 41.8269 23.2896 41.3576 23.2907C41.1113 23.2951 40.8661 23.3264 40.6265 23.3838C40.3622 23.439 40.1071 23.5318 39.8692 23.6595L27.5533 30.1874C27.2611 30.3389 27.0028 30.5483 26.7939 30.8027C26.5992 31.0402 26.4628 31.32 26.3959 31.6198C26.3656 31.7443 26.3468 31.8713 26.3398 31.9993C26.3395 32.473 26.5169 32.935 26.8476 33.3207C27.1184 33.6455 27.4801 33.9109 27.9012 34.0941C28.3322 34.2795 28.7966 34.3745 29.2658 34.3732C29.5147 34.374 29.7629 34.3475 30.0059 34.2942C30.2702 34.2385 30.5252 34.1458 30.7636 34.0188L35.4627 31.5122C36.2517 31.0979 37.0925 30.7909 37.9628 30.5992C38.7717 30.426 39.5967 30.3384 40.424 30.3379C42.0039 30.3379 43.5601 30.6559 44.9598 31.265C46.3596 31.8742 47.5617 32.7566 48.4626 33.8363C49.5592 35.114 50.1491 36.6451 50.1494 38.2157C50.1505 38.6622 50.103 39.1081 50.0075 39.5474C49.7981 40.5157 49.3485 41.437 48.6878 42.2527C48.0268 43.0681 47.1691 43.7601 46.1688 44.2846L33.8745 50.8125C33.0842 51.2279 32.2421 51.5363 31.3703 51.7292H31.3699Z" fill="white"/>
<path d="M54.1943 18.8218C49.2838 12.9739 39.5842 11.2407 32.5737 14.958L20.2574 21.4893C18.5913 22.3587 17.1616 23.5075 16.0595 24.8629C14.9575 26.2183 14.2078 27.7501 13.8582 29.3602C13.7024 30.0827 13.6231 30.8197 13.6217 31.5588C13.6292 33.5632 14.2198 35.5364 15.3428 37.3098C14.2899 38.6408 13.5711 40.1354 13.2301 41.7036C12.8808 43.3427 12.9298 45.0416 13.3728 46.6578C13.8162 48.2847 14.6454 49.8217 15.812 51.1788C20.7222 57.0263 30.4435 58.7595 37.4323 55.0426L49.7358 48.5109C51.401 47.6406 52.8289 46.4904 53.9282 45.1336C55.0272 43.7768 55.7731 42.2437 56.1179 40.6328C56.2761 39.9086 56.3555 39.174 56.3544 38.4376C56.3513 36.437 55.7683 34.467 54.6546 32.6939C55.7071 31.3639 56.4259 29.8707 56.7676 28.3039C56.9202 27.5789 56.9979 26.8446 57 26.1087C57.0007 23.4979 56.0196 20.9524 54.1943 18.8287V18.8218V18.8218Z" fill="#FF3E00"/>
<path d="M31.37 51.7295C30.5611 51.9029 29.7361 51.9904 28.9087 51.9907C27.3292 51.9911 25.7731 51.6728 24.3736 51.0626C22.9746 50.4528 21.7738 49.5697 20.8746 48.4889C19.7767 47.2116 19.1868 45.6801 19.1878 44.1095C19.1885 43.6668 19.2345 43.2253 19.3253 42.7919C19.3992 42.4659 19.4986 42.1461 19.6227 41.8356L19.855 41.2485L20.4831 41.6459C21.9416 42.5365 23.5713 43.2148 25.3025 43.6513L25.759 43.7658L25.716 44.1453V44.3423C25.715 44.817 25.8927 45.2807 26.2237 45.6671C26.4911 45.9964 26.8514 46.2666 27.2728 46.4536C27.7045 46.6429 28.1706 46.7409 28.642 46.7413C28.8908 46.7421 29.139 46.7157 29.3821 46.6626C29.6459 46.6051 29.9007 46.5124 30.1397 46.3869L42.4426 39.8233C42.8114 39.6287 43.1153 39.3596 43.3253 39.0409C43.535 38.7223 43.6443 38.3644 43.643 38.0007C43.6395 37.526 43.4573 37.064 43.1222 36.6794C42.8506 36.3542 42.4883 36.0888 42.0665 35.9052C41.6347 35.7199 41.1694 35.6251 40.6994 35.6268C40.4506 35.6261 40.2024 35.6526 39.9593 35.7059C39.6967 35.7619 39.4433 35.8546 39.2065 35.9812L34.516 38.4734C33.7267 38.8869 32.886 39.1939 32.0159 39.3864C31.2115 39.559 30.3848 39.647 29.5543 39.6476C27.9751 39.6476 26.4196 39.3293 25.0206 38.7202C23.6215 38.1111 22.4204 37.229 21.5202 36.1496C20.4236 34.8716 19.8337 33.3405 19.8334 31.7702C19.8341 31.3285 19.8801 30.8878 19.9709 30.4526C20.1816 29.4846 20.6312 28.5637 21.2923 27.7484C21.9529 26.9326 22.8103 26.2403 23.8095 25.7154L36.1255 19.1876C36.8982 18.7785 37.7411 18.4691 38.6256 18.2708C39.4299 18.0992 40.2567 18.013 41.0868 18.013C42.6698 18.0095 44.2301 18.3258 45.634 18.9346C47.0379 19.543 48.243 20.4264 49.1468 21.5079C50.2368 22.789 50.8191 24.3211 50.8122 25.8907C50.8115 26.3347 50.7653 26.7775 50.6744 27.2121C50.6006 27.5381 50.5013 27.8577 50.3774 28.1681L50.145 28.7552L49.517 28.3723C48.0595 27.4802 46.4294 26.802 44.6976 26.3668L44.2411 26.2489L44.2841 25.8691V25.6724C44.2841 25.1963 44.1067 24.7323 43.7763 24.3438C43.5051 24.019 43.1438 23.754 42.7224 23.5704C42.2914 23.385 41.8269 23.2899 41.3577 23.2909C41.1113 23.2954 40.8662 23.3266 40.6265 23.3841C40.3622 23.4392 40.1072 23.5321 39.8693 23.6598L27.5533 30.1876C27.2612 30.3392 27.0028 30.5485 26.794 30.8029C26.5992 31.0404 26.4629 31.3203 26.3959 31.62C26.3656 31.7445 26.3469 31.8716 26.3399 31.9995C26.3396 32.4732 26.5169 32.9352 26.8476 33.3209C27.1185 33.6458 27.4801 33.9111 27.9012 34.0943C28.3322 34.2797 28.7967 34.3747 29.2659 34.3735C29.5148 34.3742 29.7629 34.3477 30.006 34.2944C30.2702 34.2387 30.5253 34.146 30.7636 34.0191L35.4627 31.5124C36.2517 31.0982 37.0925 30.7911 37.9628 30.5994C38.7718 30.4262 39.5968 30.3387 40.4241 30.3382C42.004 30.3382 43.5601 30.6561 44.9599 31.2653C46.3596 31.8744 47.5617 32.7568 48.4627 33.8365C49.5593 35.1143 50.1491 36.6453 50.1495 38.2159C50.1505 38.6625 50.1031 39.1083 50.0075 39.5476C49.7982 40.516 49.3485 41.4372 48.6879 42.2529C48.0268 43.0683 47.1692 43.7603 46.1688 44.2849L33.8746 50.8127C33.0843 51.2282 32.2421 51.5365 31.3704 51.7295H31.37Z" fill="white"/>
<circle cx="35" cy="35" r="34" stroke="#FF3E00" stroke-width="2"/>
</svg>
