<svg width="70" height="70" viewBox="0 0 70 70" fill="none" xmlns="http://www.w3.org/2000/svg">
<circle cx="35" cy="35" r="34" fill="white" stroke="#110B09" stroke-width="2"/>
<g clip-path="url(#clip0_793_3320)">
<path d="M39.2187 34.8353L47.9757 19.8345L52.207 34.8353L47.9757 49.8345L39.2187 34.8353ZM34.9508 37.272L43.7093 52.2728L28.4566 48.397L17.4367 37.272H34.9508ZM43.7066 17.3946L34.9511 32.3985H17.4371L28.457 21.2716L43.7066 17.3946ZM56.2066 29.7313L50.8644 10.0122L30.9258 15.2966L27.9746 20.445L21.984 20.4024L7.39059 34.8368L21.984 49.27H21.9855L27.9715 49.2259L30.9285 54.3728L50.864 59.6567L56.2062 39.9407L53.1742 34.8353L56.2066 29.7313Z" fill="#110B09"/>
</g>
<defs>
<clipPath id="clip0_793_3320">
<rect width="50" height="50" fill="white" transform="translate(6.99997 10)"/>
</clipPath>
</defs>
</svg>
