<svg width="70" height="70" viewBox="0 0 70 70" fill="none" xmlns="http://www.w3.org/2000/svg">
<circle cx="35" cy="35" r="34" fill="white" stroke="#FDBD39" stroke-width="2"/>
<g clip-path="url(#clip0_793_3339)">
<path d="M17.7073 42.5718L15.0918 43.5274L14.9526 51.3074L24.0062 48.0001C20.8983 46.9593 18.6318 45.125 17.7073 42.5718Z" fill="#FDBD39"/>
<path d="M19.0764 34.343L10 37.6586L15.0918 43.5295L17.7073 42.5739C16.7849 40.029 17.3542 37.1559 19.0764 34.343Z" fill="#F69833"/>
<path d="M34.3477 23.1146C22.7908 27.3359 15.339 36.0487 17.7073 42.5719L59.5575 27.284C57.1892 20.7608 45.9045 18.8932 34.3477 23.1146Z" fill="#FECF33"/>
<path d="M42.9151 46.7433C54.472 42.5219 61.9362 33.8485 59.5555 27.2859L17.7052 42.5717C20.086 49.1365 31.3582 50.9646 42.9151 46.7433Z" fill="#EE6723"/>
<path d="M59.5554 27.2839L17.7073 42.5719C18.5259 44.8321 21.6524 45.9456 26.0358 45.9456C30.3112 45.9456 35.7832 44.8882 41.4879 42.8045C53.0447 38.5832 61.1738 31.7463 59.5554 27.2839Z" fill="#F69833"/>
<path d="M51.2269 23.9121C46.9536 23.9121 41.4795 24.9695 35.7749 27.0532C24.218 31.2746 16.089 38.1094 17.7073 42.5717L59.5575 27.2838C58.7369 25.0235 55.6124 23.9121 51.2269 23.9121Z" fill="#FDBD39"/>
<path d="M48.9146 51.7208C47.6827 51.7208 45.867 50.6093 43.5154 48.4156C40.7337 45.8208 37.549 42.0191 34.5429 37.7126C31.5389 33.406 29.0709 29.1015 27.5918 25.5886C25.9818 21.7619 25.7512 19.4103 26.9083 18.5959C27.1763 18.4131 27.4942 18.3196 27.8182 18.3279C28.7593 18.3279 30.5958 19.028 33.9882 22.3685L34.063 22.4412L34.0526 22.5451C34.0298 22.7861 34.009 23.0271 33.9903 23.266L33.9529 23.7376L33.6205 23.4031C29.9642 19.7198 28.3563 19.323 27.8328 19.323C27.6832 19.323 27.5648 19.3521 27.4796 19.4123C26.9769 19.7655 26.9436 21.4939 28.5059 25.2022C29.958 28.6507 32.3907 32.8908 35.3552 37.1413C38.3218 41.3938 41.4587 45.1373 44.1926 47.6864C47.1384 50.4348 48.4659 50.7319 48.9001 50.7319C49.0497 50.7319 49.1701 50.7007 49.2615 50.6363C49.7913 50.2645 49.7913 48.4135 48.0504 44.4206L47.9694 44.2378L48.1439 44.1423C48.3184 44.0467 48.4887 43.9532 48.6466 43.8618L48.8564 43.7434L48.9541 43.9636C50.1881 46.7931 51.3431 50.3891 49.8287 51.4528C49.5607 51.6356 49.2408 51.7291 48.9146 51.7208ZM48.9146 51.2845V51.5026V51.2845Z" fill="#EE6723"/>
<path d="M43.1954 46.6227L43.1788 46.8388C42.8859 50.4536 42.1172 54.7996 40.1104 54.9762C40.0689 54.9803 40.0273 54.9803 39.9879 54.9803C38.6251 54.9803 37.335 53.0275 36.1571 49.178C35.0394 45.5342 34.1731 40.6439 33.7182 35.4066C33.2611 30.1694 33.2674 25.2022 33.7369 21.4192C34.2479 17.2975 35.2202 15.1453 36.6287 15.0206C36.6702 15.0165 36.7138 15.0144 36.7554 15.0144C37.7442 15.0144 39.2338 16.1341 40.7586 21.3485L39.7635 21.5397C39.2545 19.7988 38.6999 18.3819 38.1493 17.4055C37.6404 16.506 37.1439 16.0095 36.7554 16.0095C36.7429 16.0095 36.7305 16.0095 36.7159 16.0116C36.1051 16.0656 35.216 17.5447 34.7216 21.5417C34.2604 25.2562 34.2541 30.1507 34.705 35.3194C35.1558 40.4901 36.0075 45.3077 37.1044 48.8851C37.5947 50.4868 38.1327 51.8081 38.6625 52.7034C39.1486 53.5303 39.6202 53.9852 39.9879 53.9852C40.0003 53.9852 40.0128 53.9852 40.0253 53.9831C40.609 53.9333 41.7101 52.3918 42.1733 46.9718L43.1954 46.6227Z" fill="#EE6723"/>
</g>
<defs>
<clipPath id="clip0_793_3339">
<rect width="50" height="39.9659" fill="white" transform="translate(10 15.0166)"/>
</clipPath>
</defs>
</svg>
