<svg width="29" height="26" viewBox="0 0 29 26" fill="none" xmlns="http://www.w3.org/2000/svg">
<g clip-path="url(#clip0_2804_20532)">
<path d="M25.967 7.00411C24.5082 6.32303 22.7348 6.88345 22.0197 8.23488L21.0214 9.93489L19.022 3.3145C18.8103 2.64951 18.3555 2.09178 17.7406 1.74856C17.1141 1.39729 16.3962 1.30881 15.7183 1.4965C15.0346 1.68688 14.5026 2.13468 14.1908 2.70582L13.962 1.91748C13.5501 0.622365 12.0913 -0.120384 10.7097 0.263057C9.60276 0.571418 8.87622 1.50991 8.8419 2.53957C8.22978 2.18563 7.46605 2.06496 6.72521 2.27143C5.34365 2.65755 4.55132 4.02507 4.96322 5.32823L5.13484 5.83234C4.54274 5.55883 3.87627 5.50521 3.24126 5.68218C2.57193 5.86988 2.01988 6.28818 1.68521 6.86468C1.35055 7.4385 1.27618 8.10081 1.47355 8.72826L3.33852 14.622L4.69148 18.9954C5.91286 22.8512 9.69429 25.353 13.7789 25.3503C14.6685 25.3503 15.5752 25.2323 16.4705 24.9829C19.2823 24.2 21.5105 22.2854 22.5889 19.7274L25.5551 13.9919L27.2942 10.7125C28.0179 9.34766 27.423 7.68251 25.967 7.00411V7.00411Z" fill="white"/>
</g>
<path d="M19.4737 13.7441C19.4737 13.7441 15.4227 14.7257 15.677 19.1743" stroke="#999999" stroke-width="1.1" stroke-miterlimit="10" stroke-linecap="round"/>
<path d="M7.60452 12.6429L5.06157 5.29052C4.70674 4.18315 5.38979 3.02109 6.58439 2.69025C7.78194 2.36214 9.03863 2.99375 9.39642 4.09839L11.7383 10.9832" stroke="#999999" stroke-width="1.1" stroke-linecap="round" stroke-linejoin="round"/>
<path d="M11.7917 10.9687L9.18071 3.24169C8.82588 2.13432 9.50893 0.972266 10.7035 0.641422C11.9011 0.313313 13.1578 0.944923 13.5156 2.04956L15.7746 9.68903" stroke="#999999" stroke-width="1.1" stroke-linecap="round" stroke-linejoin="round"/>
<path d="M15.7863 9.54921L14.4143 4.66585C14.0299 3.46551 14.6863 2.22964 15.8839 1.89879C17.0814 1.57068 18.3618 2.27612 18.7491 3.47372L21.1088 11.1815" stroke="#999999" stroke-width="1.1" stroke-linecap="round" stroke-linejoin="round"/>
<path d="M7.60458 12.6419L5.79494 7.57811C5.44011 6.47074 4.18046 5.83913 2.98291 6.16997C1.78536 6.49808 1.10231 7.66287 1.4601 8.77024L3.39097 14.7828L4.78663 19.2397C6.25622 23.8168 11.4604 26.428 16.4132 25.0691C19.2844 24.2816 21.44 22.3293 22.4572 19.9369L26.6294 11.9748" stroke="#999999" stroke-width="1.1" stroke-linecap="round" stroke-linejoin="round"/>
<path d="M21.1089 11.1824L22.6613 8.57662C23.3029 7.38449 24.8671 6.8978 26.1564 7.49113C27.4456 8.08446 27.9719 9.53087 27.3302 10.723L25.3343 14.4334" stroke="#999999" stroke-width="1.1" stroke-linecap="round" stroke-linejoin="round"/>
<defs>
<clipPath id="clip0_2804_20532">
<rect width="26.2383" height="25.1891" fill="white" transform="translate(1.36499 0.162109)"/>
</clipPath>
</defs>
</svg>
