<svg width="38" height="36" viewBox="0 0 38 36" fill="none" xmlns="http://www.w3.org/2000/svg">
<g clip-path="url(#clip0_2652_19390)">
<path d="M34.7543 10.0038C32.7528 9.07585 30.3196 9.83941 29.3385 11.6807L27.9688 13.997L25.2256 4.97675C24.9352 4.0707 24.3112 3.3108 23.4674 2.84316C22.608 2.36457 21.6229 2.244 20.6928 2.49974C19.7549 2.75913 19.0249 3.36925 18.5971 4.14742L18.2832 3.07333C17.718 1.30874 15.7165 0.296745 13.821 0.819181C12.3022 1.23932 11.3054 2.51801 11.2583 3.92091C10.4184 3.43867 9.3706 3.27426 8.35416 3.55557C6.45862 4.08166 5.37153 5.94489 5.93666 7.72044L6.17213 8.40728C5.35976 8.03464 4.44535 7.96157 3.5741 8.20269C2.65577 8.45843 1.89834 9.02836 1.43917 9.81384C0.980005 10.5957 0.877968 11.4981 1.14876 12.353L3.70754 20.3831L5.56383 26.3418C7.2396 31.5954 12.4278 35.004 18.032 35.0004C19.2525 35.0004 20.4966 34.8396 21.725 34.4998C25.5827 33.433 28.6399 30.8245 30.1195 27.3392L34.1892 19.5246L36.5753 15.0565C37.5682 13.1969 36.7519 10.9281 34.7543 10.0038Z" fill="#F6E881"/>
</g>
<path d="M25.8455 19.1855C25.8455 19.1855 20.2875 20.523 20.6364 26.5842" stroke="#515151" stroke-width="1.5" stroke-miterlimit="10" stroke-linecap="round"/>
<path d="M9.56104 17.6844L6.07205 7.66688C5.58522 6.1581 6.52238 4.57481 8.16139 4.12404C9.80445 3.67699 11.5287 4.53755 12.0196 6.04261L15.2327 15.4231" stroke="#515151" stroke-width="1.5" stroke-linecap="round" stroke-linejoin="round"/>
<path d="M15.3057 15.4038L11.7234 4.87586C11.2366 3.36708 12.1737 1.78379 13.8128 1.33302C15.4558 0.885973 17.18 1.74654 17.6709 3.25159L20.7704 13.6603" stroke="#515151" stroke-width="1.5" stroke-linecap="round" stroke-linejoin="round"/>
<path d="M20.7866 13.4707L18.9041 6.81718C18.3767 5.18174 19.2774 3.49786 20.9204 3.04709C22.5635 2.60004 24.3202 3.56119 24.8516 5.19291L28.0891 15.6948" stroke="#515151" stroke-width="1.5" stroke-linecap="round" stroke-linejoin="round"/>
<path d="M9.56084 17.6839L7.07798 10.7845C6.59115 9.27571 4.86289 8.41514 3.21982 8.86592C1.57675 9.31296 0.639595 10.9 1.13049 12.4088L3.77968 20.6009L5.69456 26.6733C7.71087 32.9096 14.8511 36.4673 21.6465 34.6158C25.5858 33.5429 28.5433 30.8829 29.9389 27.6232L35.6633 16.7749" stroke="#515151" stroke-width="1.5" stroke-linecap="round" stroke-linejoin="round"/>
<path d="M28.0889 15.6941L30.2188 12.1438C31.0991 10.5195 33.2453 9.8564 35.0141 10.6648C36.7829 11.4732 37.5051 13.4439 36.6247 15.0682L33.8863 20.1236" stroke="#515151" stroke-width="1.5" stroke-linecap="round" stroke-linejoin="round"/>
<defs>
<clipPath id="clip0_2652_19390">
<rect width="35.9995" height="34.32" fill="white" transform="translate(1 0.679688)"/>
</clipPath>
</defs>
</svg>
