<svg width="24" height="24" viewBox="0 0 24 24" fill="none" xmlns="http://www.w3.org/2000/svg">
<path fill-rule="evenodd" clip-rule="evenodd" d="M10.3042 18.7642C9.77927 18.7642 9.3801 19.2535 9.6547 19.7008C10.1383 20.4887 11.0078 21.0142 12.0001 21.0142C12.9923 21.0142 13.8618 20.4887 14.3455 19.7008C14.6201 19.2535 14.2209 18.7642 13.696 18.7642C13.3619 18.7642 13.075 18.9842 12.8238 19.2044C12.6039 19.3973 12.3156 19.5142 12.0001 19.5142C11.6845 19.5142 11.3963 19.3973 11.1763 19.2044C10.9252 18.9842 10.6382 18.7642 10.3042 18.7642Z" fill="#1B1B1B"/>
<mask id="mask0_859_3748" style="mask-type:alpha" maskUnits="userSpaceOnUse" x="3" y="1" width="18" height="17">
<path fill-rule="evenodd" clip-rule="evenodd" d="M19.5 10.8501C19.5 7.86172 18.0167 5.06825 15.5411 3.3944L14.2405 2.51498C12.887 1.59982 11.113 1.59982 9.75949 2.51498L8.45887 3.39439C5.9833 5.06825 4.5 7.86171 4.5 10.8501V12.764C3.88625 13.3133 3.5 14.1116 3.5 15.0001C3.5 16.657 4.84315 18.0001 6.5 18.0001H17.5C19.1569 18.0001 20.5 16.657 20.5 15.0001C20.5 14.1116 20.1137 13.3133 19.5 12.764V10.8501Z" fill="white"/>
</mask>
<g mask="url(#mask0_859_3748)">
<path d="M15.5411 3.3944L14.7009 4.63701L15.5411 3.3944ZM19.5 10.8501H21H19.5ZM14.2405 2.51498L15.0807 1.27237L14.2405 2.51498ZM9.75949 2.51498L8.91931 1.27237L9.75949 2.51498ZM8.45887 3.39439L9.29906 4.63701L8.45887 3.39439ZM4.5 10.8501H6H4.5ZM4.5 12.764L5.50037 13.8817L6 13.4345V12.764H4.5ZM19.5 12.764H18V13.4345L18.4996 13.8817L19.5 12.764ZM14.7009 4.63701C16.7639 6.03188 18 8.35977 18 10.8501H21C21 7.36366 19.2695 4.10461 16.3813 2.15178L14.7009 4.63701ZM13.4003 3.75759L14.7009 4.63701L16.3813 2.15178L15.0807 1.27237L13.4003 3.75759ZM10.5997 3.75759C11.4456 3.18562 12.5544 3.18562 13.4003 3.75759L15.0807 1.27237C13.2196 0.0140277 10.7804 0.0140273 8.91931 1.27237L10.5997 3.75759ZM9.29906 4.63701L10.5997 3.75759L8.91931 1.27237L7.61868 2.15178L9.29906 4.63701ZM6 10.8501C6 8.35977 7.23608 6.03188 9.29906 4.63701L7.61868 2.15178C4.73051 4.10461 3 7.36366 3 10.8501H6ZM6 12.764V10.8501H3V12.764H6ZM5 15.0001C5 14.556 5.1911 14.1585 5.50037 13.8817L3.49963 11.6463C2.5814 12.4681 2 13.6672 2 15.0001H5ZM6.5 16.5001C5.67157 16.5001 5 15.8285 5 15.0001H2C2 17.4854 4.01472 19.5001 6.5 19.5001V16.5001ZM17.5 16.5001H6.5V19.5001H17.5V16.5001ZM19 15.0001C19 15.8285 18.3284 16.5001 17.5 16.5001V19.5001C19.9853 19.5001 22 17.4854 22 15.0001H19ZM18.4996 13.8817C18.8089 14.1585 19 14.556 19 15.0001H22C22 13.6672 21.4186 12.4681 20.5004 11.6463L18.4996 13.8817ZM18 10.8501V12.764H21V10.8501H18Z" fill="#1B1B1B"/>
</g>
</svg>
